<?xml version="1.0" encoding="UTF-8" standalone="no"?>
<svg
   width="28"
   height="28"
   fill="#6c757d"
   class="bi bi-box"
   viewBox="0 0 28 28"
   version="1.1"
   id="svg827"
   sodipodi:docname="3d_view.svg"
   inkscape:version="1.3.2 (091e20e, 2023-11-25, custom)"
   xmlns:inkscape="http://www.inkscape.org/namespaces/inkscape"
   xmlns:sodipodi="http://sodipodi.sourceforge.net/DTD/sodipodi-0.dtd"
   xmlns="http://www.w3.org/2000/svg"
   xmlns:svg="http://www.w3.org/2000/svg"
   xmlns:rdf="http://www.w3.org/1999/02/22-rdf-syntax-ns#"
   xmlns:cc="http://creativecommons.org/ns#"
   xmlns:dc="http://purl.org/dc/elements/1.1/">
  <metadata
     id="metadata833">
    <rdf:RDF>
      <cc:Work
         rdf:about="">
        <dc:format>image/svg+xml</dc:format>
        <dc:type
           rdf:resource="http://purl.org/dc/dcmitype/StillImage" />
      </cc:Work>
    </rdf:RDF>
  </metadata>
  <defs
     id="defs831">
    <marker
       style="overflow:visible"
       id="Triangle"
       refX="-1"
       refY="0"
       orient="auto-start-reverse"
       inkscape:stockid="Triangle arrow"
       markerWidth="1.4"
       markerHeight="1.1"
       viewBox="0 0 1 1"
       inkscape:isstock="true"
       inkscape:collect="always"
       preserveAspectRatio="none"
       markerUnits="strokeWidth">
      <path
         transform="scale(0.5)"
         style="fill:context-stroke;fill-rule:evenodd;stroke:context-stroke;stroke-width:1pt"
         d="M 5.77,0 -2.88,5 V -5 Z"
         id="path135" />
    </marker>
    <marker
       inkscape:stockid="Arrow2Send"
       orient="auto"
       refY="0"
       refX="0"
       id="marker4888"
       style="overflow:visible"
       inkscape:isstock="true"
       markerWidth="1.30537101"
       markerHeight="0.97872341"
       viewBox="0 0 3.4652294 2.5981128"
       preserveAspectRatio="xMidYMid">
      <path
         id="path4886"
         style="fill:#ffffff;fill-opacity:1;fill-rule:evenodd;stroke:#ffffff;stroke-width:0.625;stroke-linejoin:round;stroke-opacity:1"
         d="M 8.7185878,4.0337352 -2.2072895,0.01601326 8.7185884,-4.0017078 c -1.7454984,2.3720609 -1.7354408,5.6174519 -6e-7,8.035443 z"
         transform="matrix(-0.3,0,0,-0.3,0.69,0)" />
    </marker>
    <marker
       inkscape:stockid="Arrow2Mend"
       orient="auto"
       refY="0"
       refX="-3"
       id="Arrow2Mend"
       style="overflow:visible"
       inkscape:isstock="true"
       viewBox="0 0 6.9304588 5.1962256"
       markerWidth="0.001"
       markerHeight="0.95652175"
       preserveAspectRatio="xMidYMid">
      <path
         id="path4575"
         style="fill:#ffffff;fill-opacity:1;fill-rule:evenodd;stroke:#ffffff;stroke-width:0.625;stroke-linejoin:round;stroke-opacity:1"
         d="M 8.7185878,4.0337352 -2.2072895,0.01601326 8.7185884,-4.0017078 c -1.7454984,2.3720609 -1.7354408,5.6174519 -6e-7,8.035443 z"
         transform="scale(-0.6)" />
    </marker>
    <marker
       inkscape:stockid="Arrow2Send"
       orient="auto"
       refY="0"
       refX="-1"
       id="Arrow2Send"
       style="overflow:visible"
       inkscape:isstock="true"
       viewBox="0 0 3.4652294 2.5981128"
       markerWidth="7"
       markerHeight="5"
       preserveAspectRatio="none"
       markerUnits="userSpaceOnUse">
      <path
         id="path4581"
         style="fill:#ffffff;fill-opacity:1;fill-rule:evenodd;stroke:#ffffff;stroke-width:0.625;stroke-linejoin:round;stroke-opacity:1"
         d="M 8.7185878,4.0337352 -2.2072895,0.01601326 8.7185884,-4.0017078 c -1.7454984,2.3720609 -1.7354408,5.6174519 -6e-7,8.035443 z"
         transform="matrix(-0.3,0,0,-0.3,0.69,0)" />
    </marker>
    <marker
       inkscape:stockid="Arrow1Send"
       orient="auto"
       refY="0"
       refX="-1"
       id="Arrow1Send"
       style="overflow:visible"
       inkscape:isstock="true"
       viewBox="0 0 4.4434635 2.539122"
       markerWidth="7"
       markerHeight="5"
       preserveAspectRatio="none"
       markerUnits="userSpaceOnUse">
      <path
         id="path4563"
         d="M 0,0 5,-5 -12.5,0 5,5 Z"
         style="fill:#ffffff;fill-opacity:1;fill-rule:evenodd;stroke:#ffffff;stroke-width:1pt;stroke-opacity:1"
         transform="matrix(-0.2,0,0,-0.2,-1.2,0)" />
    </marker>
    <marker
       inkscape:stockid="Arrow2Sstart"
       orient="auto"
       refY="0"
       refX="0"
       id="Arrow2Sstart"
       style="overflow:visible"
       inkscape:isstock="true">
      <path
         id="path4578"
         style="fill:#ffffff;fill-opacity:1;fill-rule:evenodd;stroke:#ffffff;stroke-width:0.625;stroke-linejoin:round;stroke-opacity:1"
         d="M 8.7185878,4.0337352 -2.2072895,0.01601326 8.7185884,-4.0017078 c -1.7454984,2.3720609 -1.7354408,5.6174519 -6e-7,8.035443 z"
         transform="matrix(0.3,0,0,0.3,-0.69,0)" />
    </marker>
    <marker
       inkscape:stockid="Arrow2Lstart"
       orient="auto"
       refY="0"
       refX="0"
       id="Arrow2Lstart"
       style="overflow:visible"
       inkscape:isstock="true">
      <path
         id="path4566"
         style="fill:#000000;fill-opacity:1;fill-rule:evenodd;stroke:#000000;stroke-width:0.625;stroke-linejoin:round;stroke-opacity:1"
         d="M 8.7185878,4.0337352 -2.2072895,0.01601326 8.7185884,-4.0017078 c -1.7454984,2.3720609 -1.7354408,5.6174519 -6e-7,8.035443 z"
         transform="matrix(1.1,0,0,1.1,1.1,0)" />
    </marker>
    <marker
       inkscape:stockid="Arrow2Lend"
       orient="auto"
       refY="0"
       refX="0"
       id="Arrow2Lend"
       style="overflow:visible"
       inkscape:isstock="true">
      <path
         id="path4569"
         style="fill:#000000;fill-opacity:1;fill-rule:evenodd;stroke:#000000;stroke-width:0.625;stroke-linejoin:round;stroke-opacity:1"
         d="M 8.7185878,4.0337352 -2.2072895,0.01601326 8.7185884,-4.0017078 c -1.7454984,2.3720609 -1.7354408,5.6174519 -6e-7,8.035443 z"
         transform="matrix(-1.1,0,0,-1.1,-1.1,0)" />
    </marker>
    <marker
       inkscape:stockid="Arrow1Lstart"
       orient="auto"
       refY="0"
       refX="0"
       id="Arrow1Lstart"
       style="overflow:visible"
       inkscape:isstock="true">
      <path
         id="path4548"
         d="M 0,0 5,-5 -12.5,0 5,5 Z"
         style="fill:#000000;fill-opacity:1;fill-rule:evenodd;stroke:#000000;stroke-width:1pt;stroke-opacity:1"
         transform="matrix(0.8,0,0,0.8,10,0)" />
    </marker>
    <marker
       inkscape:stockid="Arrow1Lend"
       orient="auto"
       refY="0"
       refX="0"
       id="Arrow1Lend"
       style="overflow:visible"
       inkscape:isstock="true">
      <path
         id="path4551"
         d="M 0,0 5,-5 -12.5,0 5,5 Z"
         style="fill:#000000;fill-opacity:1;fill-rule:evenodd;stroke:#000000;stroke-width:1pt;stroke-opacity:1"
         transform="matrix(-0.8,0,0,-0.8,-10,0)" />
    </marker>
  </defs>
  <sodipodi:namedview
     pagecolor="#ffffff"
     bordercolor="#666666"
     borderopacity="1"
     objecttolerance="10"
     gridtolerance="10"
     guidetolerance="10"
     inkscape:pageopacity="0"
     inkscape:pageshadow="2"
     inkscape:window-width="1920"
     inkscape:window-height="1017"
     id="namedview829"
     showgrid="false"
     inkscape:zoom="8.0000001"
     inkscape:cx="6.5624999"
     inkscape:cy="20.8125"
     inkscape:window-x="-8"
     inkscape:window-y="-8"
     inkscape:window-maximized="1"
     inkscape:current-layer="svg827"
     inkscape:showpageshadow="2"
     inkscape:pagecheckerboard="0"
     inkscape:deskcolor="#d1d1d1" />
  <circle
     style="opacity:1;fill:#212529;fill-opacity:1;stroke:none;stroke-width:3.64724;stroke-linecap:round;stroke-linejoin:miter;stroke-miterlimit:4;stroke-dasharray:none;stroke-dashoffset:0;stroke-opacity:1"
     id="path4542"
     cx="14"
     cy="14"
     r="14" />
  <g
     id="g4874"
     transform="translate(6.074219,3.5586689)">
    <path
       sodipodi:nodetypes="ccccc"
       inkscape:connector-curvature="0"
       id="path4830"
       d="m 13.169799,16.797432 c 3.35058,-0.863585 5.424625,-2.484184 5.428639,-4.241781 C 18.597479,9.8629998 13.819375,7.6804352 7.9257814,7.6804639 2.0321884,7.6804352 -2.7458381,9.8629998 -2.7468761,12.555651 c 0.00181,1.758227 2.07529572,3.379849 5.4266751,4.244068"
       style="opacity:1;fill:none;fill-opacity:1;stroke:#ffffff;stroke-width:0.7;stroke-linecap:round;stroke-linejoin:miter;stroke-miterlimit:4;stroke-dasharray:none;stroke-dashoffset:0;stroke-opacity:1;marker-end:url(#Triangle)" />
    <g
       id="g1"
       transform="matrix(0.93134715,0,0,0.93134715,0.51497689,0.58368651)"
       style="stroke-width:1.07371">
      <path
         inkscape:connector-curvature="0"
         id="path4868"
         d="M 7.9571692,7.4101692 V 14.622178 L 14.791651,12.255197 V 5.0431881 Z"
         style="fill:#212529;fill-opacity:1;fill-rule:evenodd;stroke:none;stroke-width:1.07371px;stroke-linecap:butt;stroke-linejoin:miter;stroke-opacity:1" />
      <path
         inkscape:connector-curvature="0"
         id="path4868-8"
         d="M 7.9551692,7.4101692 V 14.622178 L 1.1206872,12.255197 V 5.0431881 Z"
         style="fill:#212529;fill-opacity:1;fill-rule:evenodd;stroke:none;stroke-width:1.07371px;stroke-linecap:butt;stroke-linejoin:miter;stroke-opacity:1" />
    </g>
    <path
       style="fill:#ffffff;fill-opacity:1;stroke:none;stroke-width:0.999997;stroke-opacity:1"
       inkscape:connector-curvature="0"
       id="path825"
       d="m 8.0826377,2.6301808 a 0.42393868,0.42393868 0 0 0 -0.3154104,0 L 2.7070952,4.654064 7.9249325,6.7406902 13.142769,4.654064 Z M 13.860074,5.2806454 8.3488712,7.4851265 V 14.20201 L 13.860074,11.997529 V 5.2814933 Z M 7.5009938,14.202859 V 7.4842787 L 1.989791,5.2806454 V 11.998378 Z M 7.4526648,1.8425027 a 1.271816,1.271816 0 0 1 0.9445354,0 l 6.0445168,2.4181462 a 0.42393868,0.42393868 0 0 1 0.266234,0.3934151 v 7.344314 a 0.84787736,0.84787736 0 0 1 -0.533315,0.78683 l -6.0919983,2.436799 a 0.42393868,0.42393868 0 0 1 -0.3154104,0 L 1.6760763,12.785208 A 0.84787736,0.84787736 0 0 1 1.1419136,11.998378 V 4.654064 A 0.42393868,0.42393868 0 0 1 1.4081471,4.2606489 Z" />
  </g>
</svg>
