<?xml version="1.0" encoding="UTF-8" standalone="no"?>
<svg
   xmlns:dc="http://purl.org/dc/elements/1.1/"
   xmlns:cc="http://creativecommons.org/ns#"
   xmlns:rdf="http://www.w3.org/1999/02/22-rdf-syntax-ns#"
   xmlns:svg="http://www.w3.org/2000/svg"
   xmlns="http://www.w3.org/2000/svg"
   xmlns:sodipodi="http://sodipodi.sourceforge.net/DTD/sodipodi-0.dtd"
   xmlns:inkscape="http://www.inkscape.org/namespaces/inkscape"
   width="16"
   height="16"
   fill="rgba(33, 37, 41, 1.0)"
   class="bi bi-search"
   viewBox="0 0 16 16"
   version="1.1"
   id="svg827"
   sodipodi:docname="not_found.svg"
   inkscape:version="0.92.4 (5da689c313, 2019-01-14)">
  <metadata
     id="metadata833">
    <rdf:RDF>
      <cc:Work
         rdf:about="">
        <dc:format>image/svg+xml</dc:format>
        <dc:type
           rdf:resource="http://purl.org/dc/dcmitype/StillImage" />
        <dc:title />
      </cc:Work>
    </rdf:RDF>
  </metadata>
  <defs
     id="defs831" />
  <sodipodi:namedview
     pagecolor="#ffffff"
     bordercolor="#666666"
     borderopacity="1"
     objecttolerance="10"
     gridtolerance="10"
     guidetolerance="10"
     inkscape:pageopacity="0"
     inkscape:pageshadow="2"
     inkscape:window-width="1920"
     inkscape:window-height="1017"
     id="namedview829"
     showgrid="false"
     inkscape:zoom="37.476659"
     inkscape:cx="8.83453"
     inkscape:cy="6.3325493"
     inkscape:window-x="-8"
     inkscape:window-y="-8"
     inkscape:window-maximized="1"
     inkscape:current-layer="svg827" />
  <path
     style="stroke:none;stroke-opacity:1;fill:#212529;fill-opacity:1;opacity:0.5"
     d="M 12.484375 0 A 0.50083746 0.50083746 0 0 0 12.140625 0.15234375 L 10.726562 1.5664062 A 6.5 6.5 0 0 0 1.5664062 10.726562 L 0.15234375 12.140625 A 0.50083746 0.50083746 0 1 0 0.859375 12.847656 L 2.2753906 11.431641 A 6.5 6.5 0 0 0 10.34375 11.742188 C 10.37375 11.782187 10.405406 11.820422 10.441406 11.857422 L 14.292969 15.707031 A 1.0002026 1.0002026 0 0 0 15.707031 14.292969 L 11.857422 10.443359 A 1.007 1.007 0 0 0 11.742188 10.34375 A 6.5 6.5 0 0 0 11.429688 2.2773438 L 12.847656 0.859375 A 0.50083746 0.50083746 0 0 0 12.484375 0 z M 6.6601562 1.0019531 A 5.5 5.5 0 0 1 10.015625 2.2773438 L 2.2773438 10.015625 A 5.5 5.5 0 0 1 1 6.5 A 5.5 5.5 0 0 1 6.6601562 1.0019531 z M 10.722656 2.984375 A 5.5 5.5 0 0 1 12 6.5 A 5.5 5.5 0 0 1 2.984375 10.722656 L 10.722656 2.984375 z "
     id="path825" />
</svg>
