<?xml version="1.0" encoding="UTF-8" standalone="no"?>
<!-- Created with Inkscape (http://www.inkscape.org/) -->

<svg
   xmlns:dc="http://purl.org/dc/elements/1.1/"
   xmlns:cc="http://creativecommons.org/ns#"
   xmlns:rdf="http://www.w3.org/1999/02/22-rdf-syntax-ns#"
   xmlns:svg="http://www.w3.org/2000/svg"
   xmlns="http://www.w3.org/2000/svg"
   xmlns:sodipodi="http://sodipodi.sourceforge.net/DTD/sodipodi-0.dtd"
   xmlns:inkscape="http://www.inkscape.org/namespaces/inkscape"
   width="56.937103mm"
   height="21.701305mm"
   viewBox="0 0 56.937103 21.701306"
   version="1.1"
   id="svg8"
   inkscape:version="0.92.4 (5da689c313, 2019-01-14)"
   sodipodi:docname="home_logo_small - Kopie.svg">
  <defs
     id="defs2" />
  <sodipodi:namedview
     id="base"
     pagecolor="#ffffff"
     bordercolor="#666666"
     borderopacity="1.0"
     inkscape:pageopacity="0.0"
     inkscape:pageshadow="2"
     inkscape:zoom="3.959798"
     inkscape:cx="96.709351"
     inkscape:cy="48.635581"
     inkscape:document-units="mm"
     inkscape:current-layer="layer1"
     showgrid="false"
     fit-margin-top="0"
     fit-margin-left="0"
     fit-margin-right="0"
     fit-margin-bottom="0"
     inkscape:window-width="1920"
     inkscape:window-height="1017"
     inkscape:window-x="-8"
     inkscape:window-y="-8"
     inkscape:window-maximized="1" />
  <metadata
     id="metadata5">
    <rdf:RDF>
      <cc:Work
         rdf:about="">
        <dc:format>image/svg+xml</dc:format>
        <dc:type
           rdf:resource="http://purl.org/dc/dcmitype/StillImage" />
        <dc:title></dc:title>
      </cc:Work>
    </rdf:RDF>
  </metadata>
  <g
     inkscape:label="Ebene 1"
     inkscape:groupmode="layer"
     id="layer1"
     transform="translate(-81.483032,-48.651254)">
    <g
       id="g926"
       transform="translate(41.057967)">
      <rect
         rx="2.0999801"
         y="48.851254"
         x="40.625065"
         height="13.999867"
         width="13.999867"
         id="rect4522"
         style="fill:#ffffff;fill-opacity:1;stroke:#c8c8c8;stroke-width:0.40000001;stroke-linejoin:miter;stroke-miterlimit:4;stroke-dasharray:none;stroke-dashoffset:9.11433029;stroke-opacity:1"
         ry="2.0999801" />
      <g
         id="text817"
         style="font-style:normal;font-variant:normal;font-weight:bold;font-stretch:normal;font-size:11.12314796px;line-height:1.25;font-family:'Segoe UI';-inkscape-font-specification:'Segoe UI, Bold';font-variant-ligatures:normal;font-variant-caps:normal;font-variant-numeric:normal;font-feature-settings:normal;text-align:start;letter-spacing:0px;word-spacing:0px;writing-mode:lr-tb;text-anchor:start;fill:#176fc1;fill-opacity:1;stroke:none;stroke-width:0.26458332px;stroke-linecap:butt;stroke-linejoin:miter;stroke-opacity:1"
         aria-label="D">
        <path
           inkscape:connector-curvature="0"
           id="path831"
           style="font-style:normal;font-variant:normal;font-weight:bold;font-stretch:normal;font-size:11.12314796px;font-family:'Segoe UI';-inkscape-font-specification:'Segoe UI, Bold';font-variant-ligatures:normal;font-variant-caps:normal;font-variant-numeric:normal;font-feature-settings:normal;text-align:start;writing-mode:lr-tb;text-anchor:start;fill:#176fc1;fill-opacity:1;stroke-width:0.26458332px"
           d="m 44.699913,59.745388 v -7.788376 h 2.759063 q 4.149455,0 4.149455,3.796426 0,1.81946 -1.135126,2.905705 -1.129694,1.086245 -3.014329,1.086245 z m 1.754286,-6.359964 v 4.936983 h 0.868996 q 1.140557,0 1.786873,-0.684334 0.651747,-0.684334 0.651747,-1.86291 0,-1.113401 -0.646316,-1.748854 -0.640884,-0.640885 -1.803166,-0.640885 z" />
      </g>
      <g
         id="text869"
         style="font-style:normal;font-variant:normal;font-weight:bold;font-stretch:normal;font-size:10.58333302px;line-height:1.25;font-family:'Segoe UI';-inkscape-font-specification:'Segoe UI, Bold';font-variant-ligatures:normal;font-variant-caps:normal;font-variant-numeric:normal;font-feature-settings:normal;text-align:start;letter-spacing:0px;word-spacing:0px;writing-mode:lr-tb;text-anchor:start;fill:#176fc1;fill-opacity:1;stroke:none;stroke-width:0.26458332px;stroke-linecap:butt;stroke-linejoin:miter;stroke-opacity:1"
         aria-label="aVE">
        <path
           inkscape:connector-curvature="0"
           id="path4577"
           d="m 60.604727,59.745388 h -1.545125 v -0.759644 h -0.02067 q -0.532267,0.888835 -1.576131,0.888835 -0.769979,0 -1.214396,-0.434082 -0.439249,-0.43925 -0.439249,-1.167887 0,-1.539958 1.824178,-1.777669 l 1.436604,-0.191203 q 0,-0.868164 -0.940511,-0.868164 -0.945678,0 -1.79834,0.563273 v -1.229899 q 0.341065,-0.1757 0.930176,-0.310059 0.594279,-0.134359 1.080038,-0.134359 2.263427,0 2.263427,2.25826 z m -1.53479,-2.149739 v -0.356568 l -0.961181,0.124024 q -0.795817,0.103352 -0.795817,0.718302 0,0.279053 0.191202,0.45992 0.196371,0.1757 0.5271,0.1757 0.45992,0 0.749308,-0.315226 0.289388,-0.320394 0.289388,-0.806152 z" />
        <path
           inkscape:connector-curvature="0"
           id="path4579"
           d="m 68.237336,52.334988 -2.552815,7.4104 h -1.891358 l -2.52181,-7.4104 h 1.79834 l 1.545125,5.157308 q 0.124024,0.418579 0.149862,0.738973 h 0.03101 q 0.03617,-0.346232 0.160197,-0.759644 l 1.53479,-5.136637 z" />
        <path
           inkscape:connector-curvature="0"
           id="path4581"
           d="m 73.580679,59.745388 h -4.444173 v -7.4104 h 4.273641 v 1.35909 h -2.604492 v 1.648478 h 2.423625 v 1.353923 h -2.423625 v 1.694987 h 2.775024 z" />
      </g>
    </g>
    <g
       aria-label="A curated Database of
 Visualization Examples"
       style="font-style:normal;font-variant:normal;font-weight:normal;font-stretch:normal;font-size:3.52777767px;line-height:1.25;font-family:sans-serif;-inkscape-font-specification:'sans-serif, Normal';font-variant-ligatures:normal;font-variant-caps:normal;font-variant-numeric:normal;font-feature-settings:normal;text-align:start;letter-spacing:0px;word-spacing:0px;writing-mode:lr-tb;text-anchor:start;fill:#000000;fill-opacity:1;stroke:none;stroke-width:0.26458332px;stroke-linecap:butt;stroke-linejoin:miter;stroke-opacity:1"
       id="text954">
      <path
         d="M 99.233899,65.233147 H 98.870442 L 98.61895,64.518289 h -1.109321 l -0.251492,0.714858 h -0.346232 l 0.933621,-2.564874 h 0.454753 z m -0.720025,-1.007691 -0.449585,-1.259182 -0.451307,1.259182 z"
         id="path832"
         inkscape:connector-curvature="0" />
      <path
         d="m 102.26042,65.112568 q -0.16192,0.07752 -0.30834,0.120579 -0.14469,0.04306 -0.30834,0.04306 -0.20842,0 -0.3824,-0.06029 -0.17398,-0.06201 -0.298,-0.186035 -0.12575,-0.124023 -0.19465,-0.313504 -0.0689,-0.18948 -0.0689,-0.442694 0,-0.471978 0.25838,-0.740696 0.2601,-0.268717 0.68557,-0.268717 0.16537,0 0.32384,0.04651 0.1602,0.04651 0.29284,0.113689 v 0.360012 h -0.0172 q -0.14814,-0.115411 -0.30661,-0.177422 -0.15676,-0.06201 -0.30662,-0.06201 -0.2756,0 -0.4358,0.186035 -0.15848,0.184313 -0.15848,0.542603 0,0.347954 0.15503,0.535712 0.15676,0.186035 0.43925,0.186035 0.0982,0 0.19982,-0.02584 0.10163,-0.02584 0.18259,-0.06718 0.0706,-0.03617 0.13263,-0.07579 0.062,-0.04134 0.0982,-0.07062 h 0.0172 z"
         id="path834"
         inkscape:connector-curvature="0" />
      <path
         d="m 104.27235,65.233147 h -0.32384 v -0.213596 q -0.16364,0.129191 -0.3135,0.198093 -0.14986,0.0689 -0.33073,0.0689 -0.30317,0 -0.47198,-0.184313 -0.16881,-0.186035 -0.16881,-0.544325 v -1.248847 h 0.32384 v 1.09554 q 0,0.146417 0.0138,0.251492 0.0138,0.103353 0.0586,0.177423 0.0465,0.07579 0.12058,0.110243 0.0741,0.03445 0.21531,0.03445 0.12575,0 0.27389,-0.06546 0.14986,-0.06546 0.27905,-0.167087 v -1.436605 h 0.32384 z"
         id="path836"
         inkscape:connector-curvature="0" />
      <path
         d="m 106.11031,63.662183 h -0.0172 q -0.0723,-0.01722 -0.14124,-0.02412 -0.0672,-0.0086 -0.1602,-0.0086 -0.14986,0 -0.28939,0.06718 -0.13953,0.06546 -0.26872,0.170532 v 1.365981 h -0.32384 V 63.30907 h 0.32384 v 0.28422 q 0.19293,-0.155029 0.33934,-0.218763 0.14814,-0.06546 0.30145,-0.06546 0.0844,0 0.1223,0.0052 0.0379,0.0034 0.11369,0.0155 z"
         id="path838"
         inkscape:connector-curvature="0" />
      <path
         d="m 107.85181,65.233147 h -0.32212 v -0.204984 q -0.0431,0.02928 -0.11713,0.08268 -0.0724,0.05168 -0.14125,0.08268 -0.081,0.03962 -0.18604,0.06546 -0.10507,0.02756 -0.24632,0.02756 -0.26011,0 -0.44097,-0.172255 -0.18087,-0.172255 -0.18087,-0.43925 0,-0.218763 0.093,-0.353122 0.0947,-0.136081 0.26871,-0.213596 0.1757,-0.07752 0.42203,-0.105075 0.24632,-0.02756 0.52882,-0.04134 v -0.04995 q 0,-0.110243 -0.0396,-0.18259 -0.0379,-0.07235 -0.11024,-0.113689 -0.0689,-0.03962 -0.16537,-0.0534 -0.0965,-0.01378 -0.20154,-0.01378 -0.12746,0 -0.28422,0.03445 -0.15675,0.03273 -0.32383,0.09646 h -0.0172 v -0.329007 q 0.0947,-0.02584 0.27389,-0.05684 0.17914,-0.03101 0.35312,-0.03101 0.20326,0 0.35312,0.03445 0.15158,0.03273 0.26183,0.113688 0.10852,0.07924 0.16536,0.204983 0.0568,0.125746 0.0568,0.311782 z m -0.32212,-0.473701 v -0.535712 q -0.14814,0.0086 -0.34968,0.02584 -0.19981,0.01722 -0.31695,0.04995 -0.13952,0.03962 -0.22565,0.124023 -0.0861,0.08268 -0.0861,0.229099 0,0.165365 0.0999,0.24977 0.0999,0.08268 0.30489,0.08268 0.17053,0 0.31178,-0.06546 0.14125,-0.06718 0.26183,-0.160197 z"
         id="path840"
         inkscape:connector-curvature="0" />
      <path
         d="m 109.47789,65.215921 q -0.0913,0.02412 -0.19981,0.03962 -0.1068,0.0155 -0.19121,0.0155 -0.29455,0 -0.44786,-0.158475 -0.15331,-0.158474 -0.15331,-0.508151 v -1.023194 h -0.21876 v -0.272162 h 0.21876 v -0.552938 h 0.32384 v 0.552938 h 0.66835 v 0.272162 h -0.66835 V 64.458 q 0,0.151584 0.007,0.237712 0.007,0.08441 0.0482,0.158474 0.0379,0.0689 0.10336,0.10163 0.0672,0.03101 0.20326,0.03101 0.0792,0 0.16536,-0.02239 0.0861,-0.02411 0.12403,-0.03962 h 0.0172 z"
         id="path842"
         inkscape:connector-curvature="0" />
      <path
         d="m 111.48121,64.304693 h -1.41765 q 0,0.177423 0.0534,0.310059 0.0534,0.130914 0.14641,0.215319 0.0896,0.08268 0.21188,0.124023 0.12402,0.04134 0.27216,0.04134 0.19637,0 0.39446,-0.07752 0.19982,-0.07924 0.28422,-0.155029 h 0.0172 v 0.353122 q -0.16364,0.0689 -0.33418,0.115411 -0.17053,0.04651 -0.35829,0.04651 -0.47887,0 -0.74758,-0.258382 -0.26872,-0.260105 -0.26872,-0.737251 0,-0.471978 0.25666,-0.749308 0.25838,-0.27733 0.67868,-0.27733 0.3893,0 0.59945,0.227376 0.21187,0.227377 0.21187,0.645956 z m -0.31522,-0.248046 q -0.002,-0.254937 -0.12919,-0.394464 -0.12575,-0.139526 -0.38413,-0.139526 -0.26011,0 -0.41514,0.153307 -0.1533,0.153306 -0.17397,0.380683 z"
         id="path844"
         inkscape:connector-curvature="0" />
      <path
         d="m 113.53277,65.233147 h -0.32384 v -0.201538 q -0.13953,0.120578 -0.29111,0.187757 -0.15159,0.06718 -0.32901,0.06718 -0.34451,0 -0.54777,-0.265273 -0.20154,-0.265272 -0.20154,-0.735528 0,-0.244601 0.0689,-0.435804 0.0706,-0.191203 0.18948,-0.325562 0.11713,-0.130913 0.27216,-0.199815 0.15675,-0.0689 0.32384,-0.0689 0.15158,0 0.26871,0.03273 0.11714,0.03101 0.24633,0.09819 V 62.55287 h 0.32384 z m -0.32384,-0.473701 v -1.104153 q -0.13091,-0.05857 -0.23427,-0.08096 -0.10335,-0.02239 -0.22565,-0.02239 -0.27216,0 -0.42375,0.18948 -0.15158,0.189481 -0.15158,0.537435 0,0.342787 0.11713,0.521932 0.11713,0.177423 0.37552,0.177423 0.1378,0 0.27905,-0.06029 0.14125,-0.06201 0.26355,-0.158474 z"
         id="path846"
         inkscape:connector-curvature="0" />
      <path
         d="m 117.60315,63.953294 q 0,0.349677 -0.15331,0.633897 -0.15158,0.284221 -0.4048,0.440972 -0.1757,0.108521 -0.39274,0.156752 -0.21532,0.04823 -0.56844,0.04823 h -0.64768 v -2.564874 h 0.64079 q 0.37552,0 0.596,0.05512 0.22221,0.0534 0.37552,0.148139 0.26182,0.163642 0.40824,0.435804 0.14642,0.272163 0.14642,0.645956 z m -0.35657,-0.0052 q 0,-0.301446 -0.10508,-0.508151 -0.10507,-0.206706 -0.3135,-0.325562 -0.15158,-0.08613 -0.32212,-0.118856 -0.17053,-0.03445 -0.40824,-0.03445 h -0.32039 v 1.979208 h 0.32039 q 0.24633,0 0.42892,-0.03617 0.18431,-0.03617 0.33761,-0.134359 0.19121,-0.122301 0.28595,-0.322116 0.0965,-0.199816 0.0965,-0.499539 z"
         id="path848"
         inkscape:connector-curvature="0" />
      <path
         d="m 119.62714,65.233147 h -0.32211 v -0.204984 q -0.0431,0.02928 -0.11714,0.08268 -0.0723,0.05168 -0.14125,0.08268 -0.081,0.03962 -0.18603,0.06546 -0.10508,0.02756 -0.24633,0.02756 -0.2601,0 -0.44097,-0.172255 -0.18087,-0.172255 -0.18087,-0.43925 0,-0.218763 0.093,-0.353122 0.0947,-0.136081 0.26872,-0.213596 0.1757,-0.07752 0.42202,-0.105075 0.24633,-0.02756 0.52883,-0.04134 v -0.04995 q 0,-0.110243 -0.0396,-0.18259 -0.0379,-0.07235 -0.11025,-0.113689 -0.0689,-0.03962 -0.16536,-0.0534 -0.0965,-0.01378 -0.20154,-0.01378 -0.12747,0 -0.28422,0.03445 -0.15675,0.03273 -0.32384,0.09646 h -0.0172 v -0.329007 q 0.0947,-0.02584 0.27388,-0.05684 0.17915,-0.03101 0.35312,-0.03101 0.20326,0 0.35313,0.03445 0.15158,0.03273 0.26182,0.113688 0.10852,0.07924 0.16537,0.204983 0.0568,0.125746 0.0568,0.311782 z m -0.32211,-0.473701 v -0.535712 q -0.14814,0.0086 -0.34968,0.02584 -0.19982,0.01722 -0.31695,0.04995 -0.13953,0.03962 -0.22565,0.124023 -0.0861,0.08268 -0.0861,0.229099 0,0.165365 0.0999,0.24977 0.0999,0.08268 0.30489,0.08268 0.17053,0 0.31178,-0.06546 0.14125,-0.06718 0.26183,-0.160197 z"
         id="path850"
         inkscape:connector-curvature="0" />
      <path
         d="m 121.25323,65.215921 q -0.0913,0.02412 -0.19982,0.03962 -0.1068,0.0155 -0.1912,0.0155 -0.29456,0 -0.44786,-0.158475 -0.15331,-0.158474 -0.15331,-0.508151 v -1.023194 h -0.21876 v -0.272162 h 0.21876 v -0.552938 h 0.32384 v 0.552938 h 0.66835 v 0.272162 h -0.66835 V 64.458 q 0,0.151584 0.007,0.237712 0.007,0.08441 0.0482,0.158474 0.0379,0.0689 0.10335,0.10163 0.0672,0.03101 0.20326,0.03101 0.0792,0 0.16537,-0.02239 0.0861,-0.02411 0.12402,-0.03962 h 0.0172 z"
         id="path852"
         inkscape:connector-curvature="0" />
      <path
         d="m 123.14114,65.233147 h -0.32212 v -0.204984 q -0.0431,0.02928 -0.11713,0.08268 -0.0724,0.05168 -0.14125,0.08268 -0.081,0.03962 -0.18604,0.06546 -0.10507,0.02756 -0.24632,0.02756 -0.2601,0 -0.44097,-0.172255 -0.18087,-0.172255 -0.18087,-0.43925 0,-0.218763 0.093,-0.353122 0.0947,-0.136081 0.26872,-0.213596 0.1757,-0.07752 0.42202,-0.105075 0.24632,-0.02756 0.52882,-0.04134 v -0.04995 q 0,-0.110243 -0.0396,-0.18259 -0.0379,-0.07235 -0.11024,-0.113689 -0.0689,-0.03962 -0.16536,-0.0534 -0.0965,-0.01378 -0.20154,-0.01378 -0.12747,0 -0.28422,0.03445 -0.15675,0.03273 -0.32384,0.09646 h -0.0172 v -0.329007 q 0.0947,-0.02584 0.27389,-0.05684 0.17914,-0.03101 0.35312,-0.03101 0.20326,0 0.35312,0.03445 0.15159,0.03273 0.26183,0.113688 0.10852,0.07924 0.16536,0.204983 0.0568,0.125746 0.0568,0.311782 z m -0.32212,-0.473701 v -0.535712 q -0.14814,0.0086 -0.34968,0.02584 -0.19981,0.01722 -0.31694,0.04995 -0.13953,0.03962 -0.22566,0.124023 -0.0861,0.08268 -0.0861,0.229099 0,0.165365 0.0999,0.24977 0.0999,0.08268 0.30489,0.08268 0.17054,0 0.31178,-0.06546 0.14125,-0.06718 0.26183,-0.160197 z"
         id="path854"
         inkscape:connector-curvature="0" />
      <path
         d="m 125.46141,64.256462 q 0,0.241157 -0.0689,0.434082 -0.0672,0.192925 -0.18259,0.323839 -0.1223,0.136081 -0.26872,0.204983 -0.14642,0.06718 -0.32212,0.06718 -0.16364,0 -0.28594,-0.03962 -0.1223,-0.0379 -0.24116,-0.103353 l -0.0207,0.08957 h -0.30316 v -2.680285 h 0.32383 v 0.957737 q 0.13609,-0.111966 0.28939,-0.18259 0.15331,-0.07235 0.34451,-0.07235 0.34107,0 0.53744,0.261827 0.19809,0.261827 0.19809,0.738973 z m -0.33417,0.0086 q 0,-0.34451 -0.11369,-0.521932 -0.11369,-0.179145 -0.36691,-0.179145 -0.14124,0 -0.28594,0.06201 -0.14469,0.06029 -0.26872,0.156752 v 1.10243 q 0.13781,0.06201 0.23599,0.08613 0.0999,0.02412 0.22566,0.02412 0.26871,0 0.4203,-0.1757 0.15331,-0.177422 0.15331,-0.55466 z"
         id="path856"
         inkscape:connector-curvature="0" />
      <path
         d="m 127.46129,65.233147 h -0.32212 v -0.204984 q -0.0431,0.02928 -0.11713,0.08268 -0.0724,0.05168 -0.14125,0.08268 -0.081,0.03962 -0.18604,0.06546 -0.10507,0.02756 -0.24632,0.02756 -0.2601,0 -0.44097,-0.172255 -0.18087,-0.172255 -0.18087,-0.43925 0,-0.218763 0.093,-0.353122 0.0947,-0.136081 0.26872,-0.213596 0.1757,-0.07752 0.42202,-0.105075 0.24632,-0.02756 0.52882,-0.04134 v -0.04995 q 0,-0.110243 -0.0396,-0.18259 -0.0379,-0.07235 -0.11024,-0.113689 -0.0689,-0.03962 -0.16536,-0.0534 -0.0965,-0.01378 -0.20154,-0.01378 -0.12747,0 -0.28422,0.03445 -0.15675,0.03273 -0.32384,0.09646 h -0.0172 v -0.329007 q 0.0947,-0.02584 0.27389,-0.05684 0.17914,-0.03101 0.35312,-0.03101 0.20326,0 0.35312,0.03445 0.15159,0.03273 0.26183,0.113688 0.10852,0.07924 0.16536,0.204983 0.0569,0.125746 0.0569,0.311782 z m -0.32212,-0.473701 v -0.535712 q -0.14814,0.0086 -0.34968,0.02584 -0.19981,0.01722 -0.31694,0.04995 -0.13953,0.03962 -0.22566,0.124023 -0.0861,0.08268 -0.0861,0.229099 0,0.165365 0.0999,0.24977 0.0999,0.08268 0.30489,0.08268 0.17054,0 0.31178,-0.06546 0.14125,-0.06718 0.26183,-0.160197 z"
         id="path858"
         inkscape:connector-curvature="0" />
      <path
         d="m 129.46289,64.678486 q 0,0.26355 -0.21876,0.43236 -0.21705,0.168809 -0.59428,0.168809 -0.2136,0 -0.39274,-0.04995 -0.17743,-0.05168 -0.29801,-0.111966 v -0.363458 h 0.0172 q 0.15331,0.115411 0.34106,0.184313 0.18776,0.06718 0.36002,0.06718 0.21359,0 0.33417,-0.0689 0.12058,-0.0689 0.12058,-0.217041 0,-0.113688 -0.0655,-0.172254 -0.0654,-0.05857 -0.25149,-0.09991 -0.0689,-0.0155 -0.18087,-0.03617 -0.11024,-0.02067 -0.20153,-0.04479 -0.25322,-0.06718 -0.36002,-0.19637 -0.10507,-0.130914 -0.10507,-0.320394 0,-0.118856 0.0482,-0.223931 0.0499,-0.105076 0.14986,-0.187758 0.0965,-0.08096 0.2446,-0.127469 0.14986,-0.04823 0.33418,-0.04823 0.17225,0 0.34795,0.04306 0.17742,0.04134 0.29456,0.10163 v 0.346232 h -0.0172 q -0.12402,-0.0913 -0.30144,-0.153307 -0.17743,-0.06373 -0.34796,-0.06373 -0.17742,0 -0.29972,0.0689 -0.1223,0.06718 -0.1223,0.201538 0,0.118856 0.0741,0.179145 0.0723,0.06029 0.23426,0.09819 0.0896,0.02067 0.19982,0.04134 0.11196,0.02067 0.18603,0.0379 0.22566,0.05168 0.34796,0.177422 0.1223,0.127468 0.1223,0.337619 z"
         id="path860"
         inkscape:connector-curvature="0" />
      <path
         d="m 131.53856,64.304693 h -1.41766 q 0,0.177423 0.0534,0.310059 0.0534,0.130914 0.14642,0.215319 0.0896,0.08268 0.21187,0.124023 0.12403,0.04134 0.27216,0.04134 0.19637,0 0.39447,-0.07752 0.19981,-0.07924 0.28422,-0.155029 h 0.0172 v 0.353122 q -0.16364,0.0689 -0.33417,0.115411 -0.17053,0.04651 -0.35829,0.04651 -0.47887,0 -0.74759,-0.258382 -0.26871,-0.260105 -0.26871,-0.737251 0,-0.471978 0.25666,-0.749308 0.25838,-0.27733 0.67868,-0.27733 0.3893,0 0.59945,0.227376 0.21187,0.227377 0.21187,0.645956 z m -0.31523,-0.248046 q -0.002,-0.254937 -0.12919,-0.394464 -0.12574,-0.139526 -0.38413,-0.139526 -0.2601,0 -0.41513,0.153307 -0.15331,0.153306 -0.17398,0.380683 z"
         id="path862"
         inkscape:connector-curvature="0" />
      <path
         d="m 134.90959,64.271965 q 0,0.470256 -0.24116,0.742418 -0.24116,0.272163 -0.64596,0.272163 -0.40824,0 -0.6494,-0.272163 -0.23943,-0.272162 -0.23943,-0.742418 0,-0.470255 0.23943,-0.742418 0.24116,-0.273885 0.6494,-0.273885 0.4048,0 0.64596,0.273885 0.24116,0.272163 0.24116,0.742418 z m -0.33418,0 q 0,-0.373793 -0.14641,-0.55466 -0.14642,-0.18259 -0.40653,-0.18259 -0.26355,0 -0.40996,0.18259 -0.1447,0.180867 -0.1447,0.55466 0,0.361735 0.14642,0.549493 0.14642,0.186035 0.40824,0.186035 0.25839,0 0.4048,-0.184313 0.14814,-0.186035 0.14814,-0.551215 z"
         id="path864"
         inkscape:connector-curvature="0" />
      <path
         d="m 136.44782,62.866366 h -0.0172 q -0.0534,-0.0155 -0.13953,-0.03101 -0.0861,-0.01723 -0.15158,-0.01723 -0.20843,0 -0.30317,0.09302 -0.093,0.09129 -0.093,0.332452 v 0.06546 h 0.58394 v 0.272162 h -0.57361 v 1.651924 h -0.32383 V 63.58122 h -0.21877 v -0.272162 h 0.21877 v -0.06373 q 0,-0.342787 0.17053,-0.525377 0.17053,-0.184313 0.49265,-0.184313 0.10852,0 0.19464,0.01033 0.0879,0.01034 0.1602,0.02412 z"
         id="path866"
         inkscape:connector-curvature="0" />
      <path
         d="m 100.47413,67.077995 -0.933617,2.564874 H 99.08576 l -0.933621,-2.564874 h 0.365181 l 0.804429,2.256538 0.804431,-2.256538 z"
         id="path868"
         inkscape:connector-curvature="0" />
      <path
         d="m 101.18555,67.396667 h -0.36518 V 67.06077 h 0.36518 z m -0.0207,2.246202 h -0.32384 v -1.924086 h 0.32384 z"
         id="path870"
         inkscape:connector-curvature="0" />
      <path
         d="m 103.1837,69.088208 q 0,0.26355 -0.21876,0.43236 -0.21704,0.16881 -0.59428,0.16881 -0.2136,0 -0.39274,-0.04995 -0.17742,-0.05168 -0.298,-0.111966 V 69.164 h 0.0172 q 0.15331,0.115411 0.34107,0.184313 0.18775,0.06718 0.36001,0.06718 0.2136,0 0.33417,-0.0689 0.12058,-0.0689 0.12058,-0.217041 0,-0.113689 -0.0654,-0.172255 -0.0655,-0.05857 -0.2515,-0.09991 -0.0689,-0.0155 -0.18086,-0.03617 -0.11025,-0.02067 -0.20154,-0.04479 -0.25322,-0.06718 -0.36001,-0.19637 -0.10508,-0.130914 -0.10508,-0.320394 0,-0.118856 0.0482,-0.223931 0.05,-0.105076 0.14986,-0.187758 0.0965,-0.08096 0.2446,-0.127468 0.14987,-0.04823 0.33418,-0.04823 0.17225,0 0.34795,0.04306 0.17743,0.04134 0.29456,0.10163 V 68.1632 h -0.0172 q -0.12402,-0.0913 -0.30144,-0.153306 -0.17742,-0.06374 -0.34796,-0.06374 -0.17742,0 -0.29972,0.0689 -0.1223,0.06718 -0.1223,0.201538 0,0.118856 0.0741,0.179145 0.0724,0.06029 0.23427,0.09819 0.0896,0.02067 0.19981,0.04134 0.11197,0.02067 0.18604,0.0379 0.22565,0.05168 0.34795,0.177422 0.1223,0.127469 0.1223,0.337619 z"
         id="path872"
         inkscape:connector-curvature="0" />
      <path
         d="m 105.24387,69.642869 h -0.32384 v -0.213596 q -0.16364,0.129191 -0.3135,0.198093 -0.14987,0.0689 -0.33073,0.0689 -0.30317,0 -0.47198,-0.184313 -0.16881,-0.186035 -0.16881,-0.544325 v -1.248847 h 0.32384 v 1.09554 q 0,0.146417 0.0138,0.251492 0.0138,0.103353 0.0586,0.177423 0.0465,0.07579 0.12058,0.110243 0.0741,0.03445 0.21532,0.03445 0.12575,0 0.27389,-0.06546 0.14986,-0.06546 0.27905,-0.167087 v -1.436605 h 0.32384 z"
         id="path874"
         inkscape:connector-curvature="0" />
      <path
         d="m 107.37638,69.642869 h -0.32211 v -0.204983 q -0.0431,0.02928 -0.11714,0.08268 -0.0723,0.05168 -0.14125,0.08268 -0.081,0.03962 -0.18603,0.06546 -0.10508,0.02756 -0.24633,0.02756 -0.2601,0 -0.44097,-0.172255 -0.18086,-0.172255 -0.18086,-0.43925 0,-0.218763 0.093,-0.353122 0.0947,-0.136081 0.26872,-0.213596 0.1757,-0.07752 0.42202,-0.105075 0.24633,-0.02756 0.52883,-0.04134 v -0.04995 q 0,-0.110243 -0.0396,-0.18259 -0.0379,-0.07235 -0.11025,-0.113689 -0.0689,-0.03962 -0.16536,-0.0534 -0.0965,-0.01378 -0.20154,-0.01378 -0.12747,0 -0.28422,0.03445 -0.15675,0.03273 -0.32384,0.09646 h -0.0172 v -0.329007 q 0.0947,-0.02584 0.27388,-0.05684 0.17915,-0.03101 0.35312,-0.03101 0.20327,0 0.35313,0.03445 0.15158,0.03273 0.26182,0.113688 0.10852,0.07924 0.16537,0.204983 0.0568,0.125746 0.0568,0.311782 z m -0.32211,-0.473701 v -0.535712 q -0.14814,0.0086 -0.34968,0.02584 -0.19982,0.01723 -0.31695,0.04995 -0.13953,0.03962 -0.22565,0.124023 -0.0861,0.08268 -0.0861,0.229099 0,0.165365 0.0999,0.24977 0.0999,0.08268 0.30489,0.08268 0.17053,0 0.31178,-0.06546 0.14125,-0.06718 0.26183,-0.160197 z"
         id="path876"
         inkscape:connector-curvature="0" />
      <path
         d="m 108.33067,69.642869 h -0.32384 v -2.680284 h 0.32384 z"
         id="path878"
         inkscape:connector-curvature="0" />
      <path
         d="m 109.32286,67.396667 h -0.36518 V 67.06077 h 0.36518 z m -0.0207,2.246202 h -0.32384 v -1.924086 h 0.32384 z"
         id="path880"
         inkscape:connector-curvature="0" />
      <path
         d="m 111.34169,69.642869 h -1.55374 v -0.239434 l 1.12138,-1.414212 h -1.09727 v -0.27044 h 1.50034 v 0.230821 l -1.12654,1.41938 h 1.15583 z"
         id="path882"
         inkscape:connector-curvature="0" />
      <path
         d="m 113.29506,69.642869 h -0.32212 v -0.204983 q -0.0431,0.02928 -0.11713,0.08268 -0.0724,0.05168 -0.14125,0.08268 -0.081,0.03962 -0.18604,0.06546 -0.10507,0.02756 -0.24632,0.02756 -0.26011,0 -0.44097,-0.172255 -0.18087,-0.172255 -0.18087,-0.43925 0,-0.218763 0.093,-0.353122 0.0947,-0.136081 0.26871,-0.213596 0.1757,-0.07752 0.42203,-0.105075 0.24632,-0.02756 0.52882,-0.04134 v -0.04995 q 0,-0.110243 -0.0396,-0.18259 -0.0379,-0.07235 -0.11024,-0.113689 -0.0689,-0.03962 -0.16537,-0.0534 -0.0965,-0.01378 -0.20153,-0.01378 -0.12747,0 -0.28422,0.03445 -0.15676,0.03273 -0.32384,0.09646 h -0.0172 v -0.329007 q 0.0947,-0.02584 0.27389,-0.05684 0.17914,-0.03101 0.35312,-0.03101 0.20326,0 0.35312,0.03445 0.15158,0.03273 0.26183,0.113688 0.10852,0.07924 0.16536,0.204983 0.0569,0.125746 0.0569,0.311782 z m -0.32212,-0.473701 v -0.535712 q -0.14814,0.0086 -0.34968,0.02584 -0.19981,0.01723 -0.31695,0.04995 -0.13952,0.03962 -0.22565,0.124023 -0.0861,0.08268 -0.0861,0.229099 0,0.165365 0.0999,0.24977 0.0999,0.08268 0.30489,0.08268 0.17053,0 0.31178,-0.06546 0.14125,-0.06718 0.26183,-0.160197 z"
         id="path884"
         inkscape:connector-curvature="0" />
      <path
         d="m 114.92114,69.625643 q -0.0913,0.02412 -0.19981,0.03962 -0.1068,0.0155 -0.19121,0.0155 -0.29455,0 -0.44786,-0.158475 -0.15331,-0.158474 -0.15331,-0.508151 v -1.023193 h -0.21876 v -0.272163 h 0.21876 v -0.552938 h 0.32384 v 0.552938 h 0.66835 v 0.272163 h -0.66835 v 0.876776 q 0,0.151584 0.007,0.237712 0.007,0.08441 0.0482,0.158474 0.0379,0.0689 0.10336,0.101631 0.0672,0.03101 0.20326,0.03101 0.0792,0 0.16536,-0.02239 0.0861,-0.02411 0.12403,-0.03962 h 0.0172 z"
         id="path886"
         inkscape:connector-curvature="0" />
      <path
         d="m 115.66184,67.396667 h -0.36518 V 67.06077 h 0.36518 z m -0.0207,2.246202 h -0.32384 v -1.924086 h 0.32384 z"
         id="path888"
         inkscape:connector-curvature="0" />
      <path
         d="m 117.92526,68.681687 q 0,0.470256 -0.24115,0.742418 -0.24116,0.272163 -0.64596,0.272163 -0.40824,0 -0.6494,-0.272163 -0.23943,-0.272162 -0.23943,-0.742418 0,-0.470255 0.23943,-0.742418 0.24116,-0.273885 0.6494,-0.273885 0.4048,0 0.64596,0.273885 0.24115,0.272163 0.24115,0.742418 z m -0.33417,0 q 0,-0.373793 -0.14642,-0.55466 -0.14641,-0.18259 -0.40652,-0.18259 -0.26355,0 -0.40996,0.18259 -0.1447,0.180867 -0.1447,0.55466 0,0.361735 0.14642,0.549493 0.14642,0.186035 0.40824,0.186035 0.25839,0 0.4048,-0.184313 0.14814,-0.186035 0.14814,-0.551215 z"
         id="path890"
         inkscape:connector-curvature="0" />
      <path
         d="m 120.03711,69.642869 h -0.32384 v -1.095541 q 0,-0.132636 -0.0155,-0.248046 -0.0155,-0.117134 -0.0569,-0.18259 -0.0431,-0.07235 -0.12402,-0.106798 -0.081,-0.03617 -0.21015,-0.03617 -0.13264,0 -0.27733,0.06546 -0.1447,0.06546 -0.27733,0.167087 v 1.436605 H 118.4282 V 67.71879 h 0.32384 v 0.213596 q 0.15158,-0.125746 0.3135,-0.196371 0.16192,-0.07062 0.33245,-0.07062 0.31178,0 0.47543,0.187758 0.16364,0.187757 0.16364,0.54088 z"
         id="path892"
         inkscape:connector-curvature="0" />
      <path
         d="m 123.61656,69.642869 h -1.68982 v -2.564874 h 1.68982 v 0.303169 h -1.34875 v 0.702799 h 1.34875 v 0.303168 h -1.34875 V 69.3397 h 1.34875 z"
         id="path894"
         inkscape:connector-curvature="0" />
      <path
         d="m 125.79903,69.642869 h -0.40824 l -0.54605,-0.738973 -0.54949,0.738973 h -0.37724 l 0.75103,-0.959459 -0.74414,-0.964627 h 0.40824 l 0.5426,0.726915 0.54433,-0.726915 h 0.37896 l -0.7562,0.947401 z"
         id="path896"
         inkscape:connector-curvature="0" />
      <path
         d="m 127.71623,69.642869 h -0.32212 v -0.204983 q -0.0431,0.02928 -0.11713,0.08268 -0.0724,0.05168 -0.14125,0.08268 -0.081,0.03962 -0.18604,0.06546 -0.10507,0.02756 -0.24632,0.02756 -0.26011,0 -0.44097,-0.172255 -0.18087,-0.172255 -0.18087,-0.43925 0,-0.218763 0.093,-0.353122 0.0947,-0.136081 0.26871,-0.213596 0.1757,-0.07752 0.42203,-0.105075 0.24632,-0.02756 0.52882,-0.04134 v -0.04995 q 0,-0.110243 -0.0396,-0.18259 -0.0379,-0.07235 -0.11024,-0.113689 -0.0689,-0.03962 -0.16537,-0.0534 -0.0965,-0.01378 -0.20153,-0.01378 -0.12747,0 -0.28422,0.03445 -0.15676,0.03273 -0.32384,0.09646 h -0.0172 v -0.329007 q 0.0947,-0.02584 0.27389,-0.05684 0.17914,-0.03101 0.35312,-0.03101 0.20326,0 0.35312,0.03445 0.15158,0.03273 0.26183,0.113688 0.10852,0.07924 0.16536,0.204983 0.0568,0.125746 0.0568,0.311782 z m -0.32212,-0.473701 v -0.535712 q -0.14814,0.0086 -0.34968,0.02584 -0.19981,0.01723 -0.31695,0.04995 -0.13952,0.03962 -0.22565,0.124023 -0.0861,0.08268 -0.0861,0.229099 0,0.165365 0.0999,0.24977 0.0999,0.08268 0.30489,0.08268 0.17053,0 0.31178,-0.06546 0.14125,-0.06718 0.26183,-0.160197 z"
         id="path898"
         inkscape:connector-curvature="0" />
      <path
         d="m 131.15099,69.642869 h -0.32384 v -1.095541 q 0,-0.124023 -0.0121,-0.239434 -0.0103,-0.11541 -0.0465,-0.184312 -0.0396,-0.07407 -0.11369,-0.111966 -0.0741,-0.0379 -0.21359,-0.0379 -0.13608,0 -0.27217,0.0689 -0.13608,0.06718 -0.27216,0.172255 0.005,0.03962 0.009,0.09302 0.003,0.05168 0.003,0.103353 v 1.231622 h -0.32384 v -1.095541 q 0,-0.127468 -0.0121,-0.241156 -0.0103,-0.115411 -0.0465,-0.184313 -0.0396,-0.07407 -0.11368,-0.110243 -0.0741,-0.0379 -0.2136,-0.0379 -0.13264,0 -0.26699,0.06546 -0.13264,0.06546 -0.26528,0.167087 v 1.436605 h -0.32384 v -1.924086 h 0.32384 v 0.213596 q 0.15159,-0.125746 0.30145,-0.196371 0.15158,-0.07062 0.32212,-0.07062 0.19637,0 0.33245,0.08268 0.1378,0.08268 0.20498,0.229099 0.19637,-0.165364 0.35829,-0.237711 0.16192,-0.07407 0.34623,-0.07407 0.31695,0 0.46681,0.192925 0.15159,0.191203 0.15159,0.535713 z"
         id="path900"
         inkscape:connector-curvature="0" />
      <path
         d="m 133.46781,68.657571 q 0,0.234267 -0.0672,0.428915 -0.0672,0.192925 -0.18948,0.327284 -0.11369,0.127468 -0.26872,0.198093 -0.1533,0.0689 -0.32556,0.0689 -0.14986,0 -0.27216,-0.03273 -0.12058,-0.03273 -0.24632,-0.10163 v 0.806152 h -0.32384 V 67.71878 h 0.32384 v 0.201538 q 0.12919,-0.10852 0.28938,-0.180867 0.16192,-0.07407 0.34451,-0.07407 0.34796,0 0.54088,0.26355 0.19465,0.261827 0.19465,0.728637 z m -0.33417,0.0086 q 0,-0.347954 -0.11886,-0.520209 -0.11885,-0.172255 -0.36518,-0.172255 -0.13953,0 -0.28077,0.06029 -0.14125,0.06029 -0.27044,0.158475 v 1.090372 q 0.1378,0.06201 0.23598,0.08441 0.0999,0.02239 0.22566,0.02239 0.27044,0 0.42202,-0.18259 0.15159,-0.18259 0.15159,-0.54088 z"
         id="path902"
         inkscape:connector-curvature="0" />
      <path
         d="m 134.2998,69.642869 h -0.32384 v -2.680284 h 0.32384 z"
         id="path904"
         inkscape:connector-curvature="0" />
      <path
         d="m 136.55462,68.714416 h -1.41766 q 0,0.177422 0.0534,0.310058 0.0534,0.130914 0.14642,0.215319 0.0896,0.08268 0.21187,0.124023 0.12403,0.04134 0.27216,0.04134 0.19637,0 0.39447,-0.07751 0.19981,-0.07924 0.28422,-0.15503 h 0.0172 v 0.353123 q -0.16364,0.0689 -0.33417,0.11541 -0.17053,0.04651 -0.35829,0.04651 -0.47887,0 -0.74759,-0.258382 -0.26871,-0.260105 -0.26871,-0.737251 0,-0.471978 0.25666,-0.749308 0.25838,-0.27733 0.67868,-0.27733 0.3893,0 0.59945,0.227376 0.21187,0.227377 0.21187,0.645956 z m -0.31523,-0.248047 q -0.002,-0.254937 -0.12919,-0.394464 -0.12574,-0.139526 -0.38413,-0.139526 -0.2601,0 -0.41513,0.153307 -0.15331,0.153306 -0.17398,0.380683 z"
         id="path906"
         inkscape:connector-curvature="0" />
      <path
         d="m 138.42014,69.088208 q 0,0.26355 -0.21877,0.43236 -0.21704,0.16881 -0.59428,0.16881 -0.21359,0 -0.39274,-0.04995 -0.17742,-0.05168 -0.298,-0.111966 V 69.164 h 0.0172 q 0.1533,0.115411 0.34106,0.184313 0.18776,0.06718 0.36001,0.06718 0.2136,0 0.33418,-0.0689 0.12058,-0.0689 0.12058,-0.217041 0,-0.113689 -0.0655,-0.172255 -0.0655,-0.05857 -0.25149,-0.09991 -0.0689,-0.0155 -0.18087,-0.03617 -0.11024,-0.02067 -0.20154,-0.04479 -0.25321,-0.06718 -0.36001,-0.19637 -0.10508,-0.130914 -0.10508,-0.320394 0,-0.118856 0.0482,-0.223931 0.0499,-0.105076 0.14986,-0.187758 0.0965,-0.08096 0.2446,-0.127468 0.14986,-0.04823 0.33417,-0.04823 0.17226,0 0.34796,0.04306 0.17742,0.04134 0.29455,0.10163 V 68.1632 h -0.0172 q -0.12403,-0.0913 -0.30145,-0.153306 -0.17742,-0.06374 -0.34795,-0.06374 -0.17742,0 -0.29973,0.0689 -0.1223,0.06718 -0.1223,0.201538 0,0.118856 0.0741,0.179145 0.0724,0.06029 0.23427,0.09819 0.0896,0.02067 0.19982,0.04134 0.11196,0.02067 0.18603,0.0379 0.22565,0.05168 0.34795,0.177422 0.12231,0.127469 0.12231,0.337619 z"
         id="path908"
         inkscape:connector-curvature="0" />
    </g>
  </g>
</svg>
