<?xml version="1.0" encoding="UTF-8" standalone="no"?>
<!-- Created with Inkscape (http://www.inkscape.org/) -->

<svg
   xmlns:dc="http://purl.org/dc/elements/1.1/"
   xmlns:cc="http://creativecommons.org/ns#"
   xmlns:rdf="http://www.w3.org/1999/02/22-rdf-syntax-ns#"
   xmlns:svg="http://www.w3.org/2000/svg"
   xmlns="http://www.w3.org/2000/svg"
   xmlns:sodipodi="http://sodipodi.sourceforge.net/DTD/sodipodi-0.dtd"
   xmlns:inkscape="http://www.inkscape.org/namespaces/inkscape"
   width="99.887459mm"
   height="18.037104mm"
   viewBox="0 0 99.887459 18.037104"
   version="1.1"
   id="svg8"
   inkscape:version="0.92.4 (5da689c313, 2019-01-14)"
   sodipodi:docname="logo.svg">
  <defs
     id="defs2" />
  <sodipodi:namedview
     id="base"
     pagecolor="#ffffff"
     bordercolor="#666666"
     borderopacity="1.0"
     inkscape:pageopacity="0.0"
     inkscape:pageshadow="2"
     inkscape:zoom="2.8"
     inkscape:cx="119.53019"
     inkscape:cy="37.394971"
     inkscape:document-units="mm"
     inkscape:current-layer="layer1"
     showgrid="false"
     fit-margin-top="0"
     fit-margin-left="0"
     fit-margin-right="0"
     fit-margin-bottom="0"
     inkscape:window-width="1920"
     inkscape:window-height="1017"
     inkscape:window-x="-8"
     inkscape:window-y="-8"
     inkscape:window-maximized="1" />
  <metadata
     id="metadata5">
    <rdf:RDF>
      <cc:Work
         rdf:about="">
        <dc:format>image/svg+xml</dc:format>
        <dc:type
           rdf:resource="http://purl.org/dc/dcmitype/StillImage" />
        <dc:title />
      </cc:Work>
    </rdf:RDF>
  </metadata>
  <g
     inkscape:label="Ebene 1"
     inkscape:groupmode="layer"
     id="layer1"
     transform="translate(-40.425065,-48.651254)">
    <rect
       ry="2.0999801"
       style="fill:#ffffff;fill-opacity:1;stroke:#c8c8c8;stroke-width:0.40000001;stroke-linejoin:miter;stroke-miterlimit:4;stroke-dasharray:none;stroke-dashoffset:9.11433029;stroke-opacity:1"
       id="rect4522"
       width="13.999867"
       height="13.999867"
       x="40.625065"
       y="48.851254"
       rx="2.0999801" />
    <g
       aria-label="D"
       style="font-style:normal;font-variant:normal;font-weight:bold;font-stretch:normal;font-size:11.12314796px;line-height:1.25;font-family:'Segoe UI';-inkscape-font-specification:'Segoe UI, Bold';font-variant-ligatures:normal;font-variant-caps:normal;font-variant-numeric:normal;font-feature-settings:normal;text-align:start;letter-spacing:0px;word-spacing:0px;writing-mode:lr-tb;text-anchor:start;fill:#176fc1;fill-opacity:1;stroke:none;stroke-width:0.26458332px;stroke-linecap:butt;stroke-linejoin:miter;stroke-opacity:1"
       id="text817">
      <path
         d="m 44.699913,59.745388 v -7.788376 h 2.759063 q 4.149455,0 4.149455,3.796426 0,1.81946 -1.135126,2.905705 -1.129694,1.086245 -3.014329,1.086245 z m 1.754286,-6.359964 v 4.936983 h 0.868996 q 1.140557,0 1.786873,-0.684334 0.651747,-0.684334 0.651747,-1.86291 0,-1.113401 -0.646316,-1.748854 -0.640884,-0.640885 -1.803166,-0.640885 z"
         style="font-style:normal;font-variant:normal;font-weight:bold;font-stretch:normal;font-size:11.12314796px;font-family:'Segoe UI';-inkscape-font-specification:'Segoe UI, Bold';font-variant-ligatures:normal;font-variant-caps:normal;font-variant-numeric:normal;font-feature-settings:normal;text-align:start;writing-mode:lr-tb;text-anchor:start;fill:#176fc1;fill-opacity:1;stroke-width:0.26458332px"
         id="path831"
         inkscape:connector-curvature="0" />
    </g>
    <g
       aria-label="A curated Database of Visualization Examples  "
       transform="matrix(0.26458333,0,0,0.26458333,16.832206,-12.470625)"
       style="font-style:normal;font-variant:normal;font-weight:normal;font-stretch:normal;font-size:16px;line-height:1.25;font-family:'Segoe UI';-inkscape-font-specification:'Segoe UI, Normal';font-variant-ligatures:normal;font-variant-caps:normal;font-variant-numeric:normal;font-feature-settings:normal;text-align:start;letter-spacing:0px;word-spacing:0px;writing-mode:lr-tb;text-anchor:start;fill:#000000;fill-opacity:1;stroke:none;stroke-width:1px;stroke-linecap:butt;stroke-linejoin:miter;stroke-opacity:1"
       id="flowRoot4544">
      <path
         d="m 157.2832,295.50387 h -1.45312 l -1.1875,-3.14063 h -4.75 l -1.11719,3.14063 h -1.46094 l 4.29688,-11.20313 h 1.35937 z m -3.07031,-4.32031 -1.75781,-4.77344 q -0.0859,-0.23438 -0.17188,-0.75 h -0.0312 q -0.0781,0.47656 -0.17968,0.75 l -1.74219,4.77344 z"
         style="font-style:normal;font-variant:normal;font-weight:normal;font-stretch:normal;font-size:16px;font-family:'Segoe UI';-inkscape-font-specification:'Segoe UI, Normal';font-variant-ligatures:normal;font-variant-caps:normal;font-variant-numeric:normal;font-feature-settings:normal;text-align:start;writing-mode:lr-tb;text-anchor:start"
         id="path841"
         inkscape:connector-curvature="0" />
      <path
         d="m 168.58008,295.13668 q -0.92188,0.55469 -2.1875,0.55469 -1.71094,0 -2.76563,-1.10938 -1.04687,-1.11718 -1.04687,-2.89062 0,-1.97656 1.13281,-3.17188 1.13281,-1.20312 3.02344,-1.20312 1.05469,0 1.85937,0.39062 v 1.3125 q -0.89062,-0.625 -1.90625,-0.625 -1.22656,0 -2.01562,0.88282 -0.78125,0.875 -0.78125,2.30468 0,1.40625 0.73437,2.21875 0.74219,0.8125 1.98438,0.8125 1.04687,0 1.96875,-0.69531 z"
         style="font-style:normal;font-variant:normal;font-weight:normal;font-stretch:normal;font-size:16px;font-family:'Segoe UI';-inkscape-font-specification:'Segoe UI, Normal';font-variant-ligatures:normal;font-variant-caps:normal;font-variant-numeric:normal;font-feature-settings:normal;text-align:start;writing-mode:lr-tb;text-anchor:start"
         id="path843"
         inkscape:connector-curvature="0" />
      <path
         d="m 177.00195,295.50387 h -1.28125 v -1.26563 h -0.0312 q -0.79687,1.45313 -2.46875,1.45313 -2.85937,0 -2.85937,-3.40625 v -4.78125 h 1.27344 v 4.57812 q 0,2.53125 1.9375,2.53125 0.9375,0 1.53906,-0.6875 0.60937,-0.69531 0.60937,-1.8125 v -4.60937 h 1.28125 z"
         style="font-style:normal;font-variant:normal;font-weight:normal;font-stretch:normal;font-size:16px;font-family:'Segoe UI';-inkscape-font-specification:'Segoe UI, Normal';font-variant-ligatures:normal;font-variant-caps:normal;font-variant-numeric:normal;font-feature-settings:normal;text-align:start;writing-mode:lr-tb;text-anchor:start"
         id="path845"
         inkscape:connector-curvature="0" />
      <path
         d="m 183.76758,288.80074 q -0.33594,-0.25781 -0.96875,-0.25781 -0.82031,0 -1.375,0.77344 -0.54688,0.77344 -0.54688,2.10937 v 4.07813 h -1.28125 v -8 h 1.28125 v 1.64844 h 0.0312 q 0.27344,-0.84375 0.83594,-1.3125 0.5625,-0.47657 1.25781,-0.47657 0.5,0 0.76563,0.10938 z"
         style="font-style:normal;font-variant:normal;font-weight:normal;font-stretch:normal;font-size:16px;font-family:'Segoe UI';-inkscape-font-specification:'Segoe UI, Normal';font-variant-ligatures:normal;font-variant-caps:normal;font-variant-numeric:normal;font-feature-settings:normal;text-align:start;writing-mode:lr-tb;text-anchor:start"
         id="path847"
         inkscape:connector-curvature="0" />
      <path
         d="m 190.88477,295.50387 h -1.28125 v -1.25 h -0.0312 q -0.83594,1.4375 -2.46094,1.4375 -1.19531,0 -1.875,-0.63281 -0.67188,-0.63282 -0.67188,-1.67969 0,-2.24219 2.64063,-2.60938 l 2.39844,-0.33593 q 0,-2.03907 -1.64844,-2.03907 -1.44531,0 -2.60938,0.98438 v -1.3125 q 1.17969,-0.75 2.71875,-0.75 2.82032,0 2.82032,2.98437 z m -1.28125,-4.04688 -1.92969,0.26563 q -0.89063,0.125 -1.34375,0.44531 -0.45313,0.3125 -0.45313,1.11719 0,0.58594 0.41407,0.96094 0.42187,0.36718 1.11718,0.36718 0.95313,0 1.57032,-0.66406 0.625,-0.67187 0.625,-1.69531 z"
         style="font-style:normal;font-variant:normal;font-weight:normal;font-stretch:normal;font-size:16px;font-family:'Segoe UI';-inkscape-font-specification:'Segoe UI, Normal';font-variant-ligatures:normal;font-variant-caps:normal;font-variant-numeric:normal;font-feature-settings:normal;text-align:start;writing-mode:lr-tb;text-anchor:start"
         id="path849"
         inkscape:connector-curvature="0" />
      <path
         d="m 197.02539,295.42574 q -0.45312,0.25 -1.19531,0.25 -2.10156,0 -2.10156,-2.34375 v -4.73437 h -1.375 v -1.09375 h 1.375 v -1.95313 l 1.28125,-0.41406 v 2.36719 h 2.01562 v 1.09375 h -2.01562 v 4.50781 q 0,0.80469 0.27343,1.14844 0.27344,0.34375 0.90625,0.34375 0.48438,0 0.83594,-0.26563 z"
         style="font-style:normal;font-variant:normal;font-weight:normal;font-stretch:normal;font-size:16px;font-family:'Segoe UI';-inkscape-font-specification:'Segoe UI, Normal';font-variant-ligatures:normal;font-variant-caps:normal;font-variant-numeric:normal;font-feature-settings:normal;text-align:start;writing-mode:lr-tb;text-anchor:start"
         id="path851"
         inkscape:connector-curvature="0" />
      <path
         d="m 205.18164,291.82418 h -5.64844 q 0.0312,1.33594 0.71875,2.0625 0.6875,0.72656 1.89063,0.72656 1.35156,0 2.48437,-0.89062 v 1.20312 q -1.05468,0.76563 -2.78906,0.76563 -1.69531,0 -2.66406,-1.08594 -0.96875,-1.09375 -0.96875,-3.07031 0,-1.86719 1.05469,-3.03906 1.0625,-1.17969 2.63281,-1.17969 1.57031,0 2.42969,1.01562 0.85937,1.01563 0.85937,2.82032 z m -1.3125,-1.08594 q -0.008,-1.10937 -0.53906,-1.72656 -0.52344,-0.61719 -1.46094,-0.61719 -0.90625,0 -1.53906,0.64844 -0.63281,0.64844 -0.78125,1.69531 z"
         style="font-style:normal;font-variant:normal;font-weight:normal;font-stretch:normal;font-size:16px;font-family:'Segoe UI';-inkscape-font-specification:'Segoe UI, Normal';font-variant-ligatures:normal;font-variant-caps:normal;font-variant-numeric:normal;font-feature-settings:normal;text-align:start;writing-mode:lr-tb;text-anchor:start"
         id="path853"
         inkscape:connector-curvature="0" />
      <path
         d="m 213.95508,295.50387 h -1.28125 v -1.35938 h -0.0312 q -0.89063,1.54688 -2.75,1.54688 -1.50781,0 -2.41406,-1.07031 -0.89844,-1.07813 -0.89844,-2.92969 0,-1.98438 1,-3.17969 1,-1.19531 2.66406,-1.19531 1.64844,0 2.39844,1.29687 h 0.0312 v -4.95312 h 1.28125 z m -1.28125,-3.61719 v -1.17969 q 0,-0.96875 -0.64063,-1.64062 -0.64062,-0.67188 -1.625,-0.67188 -1.17187,0 -1.84375,0.85938 -0.67187,0.85937 -0.67187,2.375 0,1.38281 0.64062,2.1875 0.64844,0.79687 1.73438,0.79687 1.07031,0 1.73437,-0.77343 0.67188,-0.77344 0.67188,-1.95313 z"
         style="font-style:normal;font-variant:normal;font-weight:normal;font-stretch:normal;font-size:16px;font-family:'Segoe UI';-inkscape-font-specification:'Segoe UI, Normal';font-variant-ligatures:normal;font-variant-caps:normal;font-variant-numeric:normal;font-feature-settings:normal;text-align:start;writing-mode:lr-tb;text-anchor:start"
         id="path855"
         inkscape:connector-curvature="0" />
      <path
         d="m 221.11133,295.50387 v -11.20313 h 3.09375 q 5.92187,0 5.92187,5.46094 0,2.59375 -1.64843,4.17188 -1.64063,1.57031 -4.39844,1.57031 z m 1.3125,-10.01563 v 8.82813 h 1.67187 q 2.20313,0 3.42969,-1.17969 1.22656,-1.17969 1.22656,-3.34375 0,-4.30469 -4.57812,-4.30469 z"
         style="font-style:normal;font-variant:normal;font-weight:normal;font-stretch:normal;font-size:16px;font-family:'Segoe UI';-inkscape-font-specification:'Segoe UI, Normal';font-variant-ligatures:normal;font-variant-caps:normal;font-variant-numeric:normal;font-feature-settings:normal;text-align:start;writing-mode:lr-tb;text-anchor:start"
         id="path857"
         inkscape:connector-curvature="0" />
      <path
         d="m 237.88477,295.50387 h -1.28125 v -1.25 h -0.0312 q -0.83594,1.4375 -2.46094,1.4375 -1.19531,0 -1.875,-0.63281 -0.67188,-0.63282 -0.67188,-1.67969 0,-2.24219 2.64063,-2.60938 l 2.39844,-0.33593 q 0,-2.03907 -1.64844,-2.03907 -1.44531,0 -2.60938,0.98438 v -1.3125 q 1.17969,-0.75 2.71875,-0.75 2.82032,0 2.82032,2.98437 z m -1.28125,-4.04688 -1.92969,0.26563 q -0.89063,0.125 -1.34375,0.44531 -0.45313,0.3125 -0.45313,1.11719 0,0.58594 0.41407,0.96094 0.42187,0.36718 1.11718,0.36718 0.95313,0 1.57032,-0.66406 0.625,-0.67187 0.625,-1.69531 z"
         style="font-style:normal;font-variant:normal;font-weight:normal;font-stretch:normal;font-size:16px;font-family:'Segoe UI';-inkscape-font-specification:'Segoe UI, Normal';font-variant-ligatures:normal;font-variant-caps:normal;font-variant-numeric:normal;font-feature-settings:normal;text-align:start;writing-mode:lr-tb;text-anchor:start"
         id="path859"
         inkscape:connector-curvature="0" />
      <path
         d="m 244.02539,295.42574 q -0.45312,0.25 -1.19531,0.25 -2.10156,0 -2.10156,-2.34375 v -4.73437 h -1.375 v -1.09375 h 1.375 v -1.95313 l 1.28125,-0.41406 v 2.36719 h 2.01562 v 1.09375 h -2.01562 v 4.50781 q 0,0.80469 0.27343,1.14844 0.27344,0.34375 0.90625,0.34375 0.48438,0 0.83594,-0.26563 z"
         style="font-style:normal;font-variant:normal;font-weight:normal;font-stretch:normal;font-size:16px;font-family:'Segoe UI';-inkscape-font-specification:'Segoe UI, Normal';font-variant-ligatures:normal;font-variant-caps:normal;font-variant-numeric:normal;font-feature-settings:normal;text-align:start;writing-mode:lr-tb;text-anchor:start"
         id="path861"
         inkscape:connector-curvature="0" />
      <path
         d="m 251.47852,295.50387 h -1.28125 v -1.25 h -0.0312 q -0.83594,1.4375 -2.46094,1.4375 -1.19531,0 -1.875,-0.63281 -0.67188,-0.63282 -0.67188,-1.67969 0,-2.24219 2.64063,-2.60938 l 2.39844,-0.33593 q 0,-2.03907 -1.64844,-2.03907 -1.44531,0 -2.60938,0.98438 v -1.3125 q 1.17969,-0.75 2.71875,-0.75 2.82032,0 2.82032,2.98437 z m -1.28125,-4.04688 -1.92969,0.26563 q -0.89063,0.125 -1.34375,0.44531 -0.45313,0.3125 -0.45313,1.11719 0,0.58594 0.41407,0.96094 0.42187,0.36718 1.11718,0.36718 0.95313,0 1.57032,-0.66406 0.625,-0.67187 0.625,-1.69531 z"
         style="font-style:normal;font-variant:normal;font-weight:normal;font-stretch:normal;font-size:16px;font-family:'Segoe UI';-inkscape-font-specification:'Segoe UI, Normal';font-variant-ligatures:normal;font-variant-caps:normal;font-variant-numeric:normal;font-feature-settings:normal;text-align:start;writing-mode:lr-tb;text-anchor:start"
         id="path863"
         inkscape:connector-curvature="0" />
      <path
         d="m 255.2207,294.34762 h -0.0312 v 1.15625 h -1.28125 v -11.84375 h 1.28125 v 5.25 h 0.0312 q 0.94532,-1.59375 2.76563,-1.59375 1.53906,0 2.40625,1.07812 0.875,1.07032 0.875,2.875 0,2.00782 -0.97656,3.21875 -0.97657,1.20313 -2.67188,1.20313 -1.58594,0 -2.39844,-1.34375 z m -0.0312,-3.22656 v 1.11718 q 0,0.99219 0.64063,1.6875 0.64844,0.6875 1.64062,0.6875 1.16407,0 1.82032,-0.89062 0.66406,-0.89063 0.66406,-2.47656 0,-1.33594 -0.61719,-2.09375 -0.61719,-0.75782 -1.67187,-0.75782 -1.11719,0 -1.79688,0.78125 -0.67969,0.77344 -0.67969,1.94532 z"
         style="font-style:normal;font-variant:normal;font-weight:normal;font-stretch:normal;font-size:16px;font-family:'Segoe UI';-inkscape-font-specification:'Segoe UI, Normal';font-variant-ligatures:normal;font-variant-caps:normal;font-variant-numeric:normal;font-feature-settings:normal;text-align:start;writing-mode:lr-tb;text-anchor:start"
         id="path865"
         inkscape:connector-curvature="0" />
      <path
         d="m 269.04102,295.50387 h -1.28125 v -1.25 h -0.0312 q -0.83594,1.4375 -2.46094,1.4375 -1.19531,0 -1.875,-0.63281 -0.67188,-0.63282 -0.67188,-1.67969 0,-2.24219 2.64063,-2.60938 l 2.39844,-0.33593 q 0,-2.03907 -1.64844,-2.03907 -1.44531,0 -2.60938,0.98438 v -1.3125 q 1.17969,-0.75 2.71875,-0.75 2.82032,0 2.82032,2.98437 z m -1.28125,-4.04688 -1.92969,0.26563 q -0.89063,0.125 -1.34375,0.44531 -0.45313,0.3125 -0.45313,1.11719 0,0.58594 0.41407,0.96094 0.42187,0.36718 1.11718,0.36718 0.95313,0 1.57032,-0.66406 0.625,-0.67187 0.625,-1.69531 z"
         style="font-style:normal;font-variant:normal;font-weight:normal;font-stretch:normal;font-size:16px;font-family:'Segoe UI';-inkscape-font-specification:'Segoe UI, Normal';font-variant-ligatures:normal;font-variant-caps:normal;font-variant-numeric:normal;font-feature-settings:normal;text-align:start;writing-mode:lr-tb;text-anchor:start"
         id="path867"
         inkscape:connector-curvature="0" />
      <path
         d="m 270.98633,295.21481 v -1.375 q 1.04687,0.77343 2.30469,0.77343 1.6875,0 1.6875,-1.125 0,-0.32031 -0.14844,-0.53906 -0.14063,-0.22656 -0.39063,-0.39844 -0.24218,-0.17187 -0.57812,-0.30468 -0.32813,-0.14063 -0.71094,-0.28907 -0.53125,-0.21093 -0.9375,-0.42187 -0.39844,-0.21875 -0.67187,-0.48438 -0.26563,-0.27343 -0.40625,-0.61718 -0.13282,-0.34375 -0.13282,-0.80469 0,-0.5625 0.25782,-0.99219 0.25781,-0.4375 0.6875,-0.72656 0.42968,-0.29688 0.97656,-0.44531 0.55469,-0.14844 1.14062,-0.14844 1.03907,0 1.85938,0.35937 v 1.29688 q -0.88281,-0.57813 -2.03125,-0.57813 -0.35938,0 -0.64844,0.0859 -0.28906,0.0781 -0.5,0.22656 -0.20312,0.14844 -0.32031,0.35938 -0.10938,0.20312 -0.10938,0.45312 0,0.3125 0.10938,0.52344 0.11719,0.21094 0.33594,0.375 0.21875,0.16406 0.53125,0.29688 0.3125,0.13281 0.71093,0.28906 0.53125,0.20312 0.95313,0.42187 0.42187,0.21094 0.71875,0.48438 0.29687,0.26562 0.45312,0.61719 0.16407,0.35156 0.16407,0.83593 0,0.59375 -0.26563,1.03125 -0.25781,0.4375 -0.69531,0.72657 -0.4375,0.28906 -1.00781,0.42968 -0.57032,0.14063 -1.19532,0.14063 -1.23437,0 -2.14062,-0.47656 z"
         style="font-style:normal;font-variant:normal;font-weight:normal;font-stretch:normal;font-size:16px;font-family:'Segoe UI';-inkscape-font-specification:'Segoe UI, Normal';font-variant-ligatures:normal;font-variant-caps:normal;font-variant-numeric:normal;font-feature-settings:normal;text-align:start;writing-mode:lr-tb;text-anchor:start"
         id="path869"
         inkscape:connector-curvature="0" />
      <path
         d="m 284.68164,291.82418 h -5.64844 q 0.0312,1.33594 0.71875,2.0625 0.6875,0.72656 1.89063,0.72656 1.35156,0 2.48437,-0.89062 v 1.20312 q -1.05468,0.76563 -2.78906,0.76563 -1.69531,0 -2.66406,-1.08594 -0.96875,-1.09375 -0.96875,-3.07031 0,-1.86719 1.05469,-3.03906 1.0625,-1.17969 2.63281,-1.17969 1.57031,0 2.42969,1.01562 0.85937,1.01563 0.85937,2.82032 z m -1.3125,-1.08594 q -0.008,-1.10937 -0.53906,-1.72656 -0.52344,-0.61719 -1.46094,-0.61719 -0.90625,0 -1.53906,0.64844 -0.63281,0.64844 -0.78125,1.69531 z"
         style="font-style:normal;font-variant:normal;font-weight:normal;font-stretch:normal;font-size:16px;font-family:'Segoe UI';-inkscape-font-specification:'Segoe UI, Normal';font-variant-ligatures:normal;font-variant-caps:normal;font-variant-numeric:normal;font-feature-settings:normal;text-align:start;writing-mode:lr-tb;text-anchor:start"
         id="path871"
         inkscape:connector-curvature="0" />
      <path
         d="m 294.3457,295.69137 q -1.77343,0 -2.83593,-1.11719 -1.05469,-1.125 -1.05469,-2.97656 0,-2.01563 1.10156,-3.14844 1.10156,-1.13281 2.97656,-1.13281 1.78907,0 2.78907,1.10156 1.00781,1.10156 1.00781,3.05469 0,1.91406 -1.08594,3.07031 -1.07812,1.14844 -2.89844,1.14844 z m 0.0937,-7.29688 q -1.23437,0 -1.95312,0.84375 -0.71875,0.83594 -0.71875,2.3125 0,1.42188 0.72656,2.24219 0.72656,0.82031 1.94531,0.82031 1.24219,0 1.90625,-0.80468 0.67188,-0.80469 0.67188,-2.28907 0,-1.5 -0.67188,-2.3125 -0.66406,-0.8125 -1.90625,-0.8125 z"
         style="font-style:normal;font-variant:normal;font-weight:normal;font-stretch:normal;font-size:16px;font-family:'Segoe UI';-inkscape-font-specification:'Segoe UI, Normal';font-variant-ligatures:normal;font-variant-caps:normal;font-variant-numeric:normal;font-feature-settings:normal;text-align:start;writing-mode:lr-tb;text-anchor:start"
         id="path873"
         inkscape:connector-curvature="0" />
      <path
         d="m 304.33008,284.78512 q -0.375,-0.21094 -0.85156,-0.21094 -1.34375,0 -1.34375,1.69531 v 1.23438 h 1.875 v 1.09375 h -1.875 v 6.90625 h -1.27344 v -6.90625 h -1.36719 v -1.09375 h 1.36719 v -1.29688 q 0,-1.25781 0.72656,-1.98437 0.72656,-0.73438 1.8125,-0.73438 0.58594,0 0.92969,0.14063 z"
         style="font-style:normal;font-variant:normal;font-weight:normal;font-stretch:normal;font-size:16px;font-family:'Segoe UI';-inkscape-font-specification:'Segoe UI, Normal';font-variant-ligatures:normal;font-variant-caps:normal;font-variant-numeric:normal;font-feature-settings:normal;text-align:start;writing-mode:lr-tb;text-anchor:start"
         id="path875"
         inkscape:connector-curvature="0" />
      <path
         d="m 318.25195,284.30074 -4.14843,11.20313 h -1.44532 l -4.0625,-11.20313 h 1.46094 l 3.10156,8.88282 q 0.14844,0.42968 0.22657,0.99218 h 0.0312 q 0.0625,-0.46875 0.25781,-1.00781 l 3.16406,-8.86719 z"
         style="font-style:normal;font-variant:normal;font-weight:normal;font-stretch:normal;font-size:16px;font-family:'Segoe UI';-inkscape-font-specification:'Segoe UI, Normal';font-variant-ligatures:normal;font-variant-caps:normal;font-variant-numeric:normal;font-feature-settings:normal;text-align:start;writing-mode:lr-tb;text-anchor:start"
         id="path877"
         inkscape:connector-curvature="0" />
      <path
         d="m 320.3457,285.47262 q -0.34375,0 -0.58593,-0.23438 -0.24219,-0.23437 -0.24219,-0.59375 0,-0.35937 0.24219,-0.59375 0.24218,-0.24218 0.58593,-0.24218 0.35157,0 0.59375,0.24218 0.25,0.23438 0.25,0.59375 0,0.34375 -0.25,0.58594 -0.24218,0.24219 -0.59375,0.24219 z m 0.625,10.03125 h -1.28125 v -8 h 1.28125 z"
         style="font-style:normal;font-variant:normal;font-weight:normal;font-stretch:normal;font-size:16px;font-family:'Segoe UI';-inkscape-font-specification:'Segoe UI, Normal';font-variant-ligatures:normal;font-variant-caps:normal;font-variant-numeric:normal;font-feature-settings:normal;text-align:start;writing-mode:lr-tb;text-anchor:start"
         id="path879"
         inkscape:connector-curvature="0" />
      <path
         d="m 323.08008,295.21481 v -1.375 q 1.04687,0.77343 2.30469,0.77343 1.6875,0 1.6875,-1.125 0,-0.32031 -0.14844,-0.53906 -0.14063,-0.22656 -0.39063,-0.39844 -0.24218,-0.17187 -0.57812,-0.30468 -0.32813,-0.14063 -0.71094,-0.28907 -0.53125,-0.21093 -0.9375,-0.42187 -0.39844,-0.21875 -0.67187,-0.48438 -0.26563,-0.27343 -0.40625,-0.61718 -0.13282,-0.34375 -0.13282,-0.80469 0,-0.5625 0.25782,-0.99219 0.25781,-0.4375 0.6875,-0.72656 0.42968,-0.29688 0.97656,-0.44531 0.55469,-0.14844 1.14062,-0.14844 1.03907,0 1.85938,0.35937 v 1.29688 q -0.88281,-0.57813 -2.03125,-0.57813 -0.35938,0 -0.64844,0.0859 -0.28906,0.0781 -0.5,0.22656 -0.20312,0.14844 -0.32031,0.35938 -0.10938,0.20312 -0.10938,0.45312 0,0.3125 0.10938,0.52344 0.11719,0.21094 0.33594,0.375 0.21875,0.16406 0.53125,0.29688 0.3125,0.13281 0.71093,0.28906 0.53125,0.20312 0.95313,0.42187 0.42187,0.21094 0.71875,0.48438 0.29687,0.26562 0.45312,0.61719 0.16407,0.35156 0.16407,0.83593 0,0.59375 -0.26563,1.03125 -0.25781,0.4375 -0.69531,0.72657 -0.4375,0.28906 -1.00781,0.42968 -0.57032,0.14063 -1.19532,0.14063 -1.23437,0 -2.14062,-0.47656 z"
         style="font-style:normal;font-variant:normal;font-weight:normal;font-stretch:normal;font-size:16px;font-family:'Segoe UI';-inkscape-font-specification:'Segoe UI, Normal';font-variant-ligatures:normal;font-variant-caps:normal;font-variant-numeric:normal;font-feature-settings:normal;text-align:start;writing-mode:lr-tb;text-anchor:start"
         id="path881"
         inkscape:connector-curvature="0" />
      <path
         d="m 336.81445,295.50387 h -1.28125 v -1.26563 h -0.0312 q -0.79687,1.45313 -2.46875,1.45313 -2.85937,0 -2.85937,-3.40625 v -4.78125 h 1.27344 v 4.57812 q 0,2.53125 1.9375,2.53125 0.9375,0 1.53906,-0.6875 0.60937,-0.69531 0.60937,-1.8125 v -4.60937 h 1.28125 z"
         style="font-style:normal;font-variant:normal;font-weight:normal;font-stretch:normal;font-size:16px;font-family:'Segoe UI';-inkscape-font-specification:'Segoe UI, Normal';font-variant-ligatures:normal;font-variant-caps:normal;font-variant-numeric:normal;font-feature-settings:normal;text-align:start;writing-mode:lr-tb;text-anchor:start"
         id="path883"
         inkscape:connector-curvature="0" />
      <path
         d="m 345.13477,295.50387 h -1.28125 v -1.25 h -0.0312 q -0.83594,1.4375 -2.46094,1.4375 -1.19531,0 -1.875,-0.63281 -0.67188,-0.63282 -0.67188,-1.67969 0,-2.24219 2.64063,-2.60938 l 2.39844,-0.33593 q 0,-2.03907 -1.64844,-2.03907 -1.44531,0 -2.60938,0.98438 v -1.3125 q 1.17969,-0.75 2.71875,-0.75 2.82032,0 2.82032,2.98437 z m -1.28125,-4.04688 -1.92969,0.26563 q -0.89063,0.125 -1.34375,0.44531 -0.45313,0.3125 -0.45313,1.11719 0,0.58594 0.41407,0.96094 0.42187,0.36718 1.11718,0.36718 0.95313,0 1.57032,-0.66406 0.625,-0.67187 0.625,-1.69531 z"
         style="font-style:normal;font-variant:normal;font-weight:normal;font-stretch:normal;font-size:16px;font-family:'Segoe UI';-inkscape-font-specification:'Segoe UI, Normal';font-variant-ligatures:normal;font-variant-caps:normal;font-variant-numeric:normal;font-feature-settings:normal;text-align:start;writing-mode:lr-tb;text-anchor:start"
         id="path885"
         inkscape:connector-curvature="0" />
      <path
         d="m 348.8457,295.50387 h -1.28125 v -11.84375 h 1.28125 z"
         style="font-style:normal;font-variant:normal;font-weight:normal;font-stretch:normal;font-size:16px;font-family:'Segoe UI';-inkscape-font-specification:'Segoe UI, Normal';font-variant-ligatures:normal;font-variant-caps:normal;font-variant-numeric:normal;font-feature-settings:normal;text-align:start;writing-mode:lr-tb;text-anchor:start"
         id="path887"
         inkscape:connector-curvature="0" />
      <path
         d="m 352.0957,285.47262 q -0.34375,0 -0.58593,-0.23438 -0.24219,-0.23437 -0.24219,-0.59375 0,-0.35937 0.24219,-0.59375 0.24218,-0.24218 0.58593,-0.24218 0.35157,0 0.59375,0.24218 0.25,0.23438 0.25,0.59375 0,0.34375 -0.25,0.58594 -0.24218,0.24219 -0.59375,0.24219 z m 0.625,10.03125 h -1.28125 v -8 h 1.28125 z"
         style="font-style:normal;font-variant:normal;font-weight:normal;font-stretch:normal;font-size:16px;font-family:'Segoe UI';-inkscape-font-specification:'Segoe UI, Normal';font-variant-ligatures:normal;font-variant-caps:normal;font-variant-numeric:normal;font-feature-settings:normal;text-align:start;writing-mode:lr-tb;text-anchor:start"
         id="path889"
         inkscape:connector-curvature="0" />
      <path
         d="m 360.89258,287.87106 -4.73438,6.53906 h 4.6875 v 1.09375 h -6.57031 v -0.39844 l 4.73438,-6.50781 h -4.28907 v -1.09375 h 6.17188 z"
         style="font-style:normal;font-variant:normal;font-weight:normal;font-stretch:normal;font-size:16px;font-family:'Segoe UI';-inkscape-font-specification:'Segoe UI, Normal';font-variant-ligatures:normal;font-variant-caps:normal;font-variant-numeric:normal;font-feature-settings:normal;text-align:start;writing-mode:lr-tb;text-anchor:start"
         id="path891"
         inkscape:connector-curvature="0" />
      <path
         d="m 368.29102,295.50387 h -1.28125 v -1.25 h -0.0312 q -0.83594,1.4375 -2.46094,1.4375 -1.19531,0 -1.875,-0.63281 -0.67188,-0.63282 -0.67188,-1.67969 0,-2.24219 2.64063,-2.60938 l 2.39844,-0.33593 q 0,-2.03907 -1.64844,-2.03907 -1.44531,0 -2.60938,0.98438 v -1.3125 q 1.17969,-0.75 2.71875,-0.75 2.82032,0 2.82032,2.98437 z m -1.28125,-4.04688 -1.92969,0.26563 q -0.89063,0.125 -1.34375,0.44531 -0.45313,0.3125 -0.45313,1.11719 0,0.58594 0.41407,0.96094 0.42187,0.36718 1.11718,0.36718 0.95313,0 1.57032,-0.66406 0.625,-0.67187 0.625,-1.69531 z"
         style="font-style:normal;font-variant:normal;font-weight:normal;font-stretch:normal;font-size:16px;font-family:'Segoe UI';-inkscape-font-specification:'Segoe UI, Normal';font-variant-ligatures:normal;font-variant-caps:normal;font-variant-numeric:normal;font-feature-settings:normal;text-align:start;writing-mode:lr-tb;text-anchor:start"
         id="path893"
         inkscape:connector-curvature="0" />
      <path
         d="m 374.43164,295.42574 q -0.45312,0.25 -1.19531,0.25 -2.10156,0 -2.10156,-2.34375 v -4.73437 h -1.375 v -1.09375 h 1.375 v -1.95313 l 1.28125,-0.41406 v 2.36719 h 2.01562 v 1.09375 h -2.01562 v 4.50781 q 0,0.80469 0.27343,1.14844 0.27344,0.34375 0.90625,0.34375 0.48438,0 0.83594,-0.26563 z"
         style="font-style:normal;font-variant:normal;font-weight:normal;font-stretch:normal;font-size:16px;font-family:'Segoe UI';-inkscape-font-specification:'Segoe UI, Normal';font-variant-ligatures:normal;font-variant-caps:normal;font-variant-numeric:normal;font-feature-settings:normal;text-align:start;writing-mode:lr-tb;text-anchor:start"
         id="path895"
         inkscape:connector-curvature="0" />
      <path
         d="m 376.81445,285.47262 q -0.34375,0 -0.58593,-0.23438 -0.24219,-0.23437 -0.24219,-0.59375 0,-0.35937 0.24219,-0.59375 0.24218,-0.24218 0.58593,-0.24218 0.35157,0 0.59375,0.24218 0.25,0.23438 0.25,0.59375 0,0.34375 -0.25,0.58594 -0.24218,0.24219 -0.59375,0.24219 z m 0.625,10.03125 h -1.28125 v -8 h 1.28125 z"
         style="font-style:normal;font-variant:normal;font-weight:normal;font-stretch:normal;font-size:16px;font-family:'Segoe UI';-inkscape-font-specification:'Segoe UI, Normal';font-variant-ligatures:normal;font-variant-caps:normal;font-variant-numeric:normal;font-feature-settings:normal;text-align:start;writing-mode:lr-tb;text-anchor:start"
         id="path897"
         inkscape:connector-curvature="0" />
      <path
         d="m 383.37695,295.69137 q -1.77343,0 -2.83593,-1.11719 -1.05469,-1.125 -1.05469,-2.97656 0,-2.01563 1.10156,-3.14844 1.10156,-1.13281 2.97656,-1.13281 1.78907,0 2.78907,1.10156 1.00781,1.10156 1.00781,3.05469 0,1.91406 -1.08594,3.07031 -1.07812,1.14844 -2.89844,1.14844 z m 0.0937,-7.29688 q -1.23437,0 -1.95312,0.84375 -0.71875,0.83594 -0.71875,2.3125 0,1.42188 0.72656,2.24219 0.72656,0.82031 1.94531,0.82031 1.24219,0 1.90625,-0.80468 0.67188,-0.80469 0.67188,-2.28907 0,-1.5 -0.67188,-2.3125 -0.66406,-0.8125 -1.90625,-0.8125 z"
         style="font-style:normal;font-variant:normal;font-weight:normal;font-stretch:normal;font-size:16px;font-family:'Segoe UI';-inkscape-font-specification:'Segoe UI, Normal';font-variant-ligatures:normal;font-variant-caps:normal;font-variant-numeric:normal;font-feature-settings:normal;text-align:start;writing-mode:lr-tb;text-anchor:start"
         id="path899"
         inkscape:connector-curvature="0" />
      <path
         d="m 396.04883,295.50387 h -1.28125 v -4.5625 q 0,-2.54688 -1.85938,-2.54688 -0.96093,0 -1.59375,0.72657 -0.625,0.71875 -0.625,1.82031 v 4.5625 h -1.28125 v -8 h 1.28125 v 1.32812 h 0.0312 q 0.90625,-1.51562 2.625,-1.51562 1.3125,0 2.00782,0.85156 0.69531,0.84375 0.69531,2.44531 z"
         style="font-style:normal;font-variant:normal;font-weight:normal;font-stretch:normal;font-size:16px;font-family:'Segoe UI';-inkscape-font-specification:'Segoe UI, Normal';font-variant-ligatures:normal;font-variant-caps:normal;font-variant-numeric:normal;font-feature-settings:normal;text-align:start;writing-mode:lr-tb;text-anchor:start"
         id="path901"
         inkscape:connector-curvature="0" />
      <path
         d="m 408.95508,295.50387 h -5.9375 v -11.20313 h 5.6875 v 1.1875 h -4.375 v 3.72657 h 4.04687 v 1.17968 h -4.04687 v 3.92188 h 4.625 z"
         style="font-style:normal;font-variant:normal;font-weight:normal;font-stretch:normal;font-size:16px;font-family:'Segoe UI';-inkscape-font-specification:'Segoe UI, Normal';font-variant-ligatures:normal;font-variant-caps:normal;font-variant-numeric:normal;font-feature-settings:normal;text-align:start;writing-mode:lr-tb;text-anchor:start"
         id="path903"
         inkscape:connector-curvature="0" />
      <path
         d="m 416.7832,287.50387 -2.6875,4.04687 2.64063,3.95313 h -1.49219 l -1.57031,-2.59375 q -0.14844,-0.24219 -0.35156,-0.60938 h -0.0312 q -0.0391,0.0703 -0.36719,0.60938 l -1.60156,2.59375 h -1.47657 l 2.72657,-3.92188 -2.60938,-4.07812 h 1.49219 l 1.54687,2.73437 q 0.17188,0.30469 0.33594,0.625 h 0.0312 l 2,-3.35937 z"
         style="font-style:normal;font-variant:normal;font-weight:normal;font-stretch:normal;font-size:16px;font-family:'Segoe UI';-inkscape-font-specification:'Segoe UI, Normal';font-variant-ligatures:normal;font-variant-caps:normal;font-variant-numeric:normal;font-feature-settings:normal;text-align:start;writing-mode:lr-tb;text-anchor:start"
         id="path905"
         inkscape:connector-curvature="0" />
      <path
         d="m 424.00977,295.50387 h -1.28125 v -1.25 h -0.0312 q -0.83594,1.4375 -2.46094,1.4375 -1.19531,0 -1.875,-0.63281 -0.67188,-0.63282 -0.67188,-1.67969 0,-2.24219 2.64063,-2.60938 l 2.39844,-0.33593 q 0,-2.03907 -1.64844,-2.03907 -1.44531,0 -2.60938,0.98438 v -1.3125 q 1.17969,-0.75 2.71875,-0.75 2.82032,0 2.82032,2.98437 z m -1.28125,-4.04688 -1.92969,0.26563 q -0.89063,0.125 -1.34375,0.44531 -0.45313,0.3125 -0.45313,1.11719 0,0.58594 0.41407,0.96094 0.42187,0.36718 1.11718,0.36718 0.95313,0 1.57032,-0.66406 0.625,-0.67187 0.625,-1.69531 z"
         style="font-style:normal;font-variant:normal;font-weight:normal;font-stretch:normal;font-size:16px;font-family:'Segoe UI';-inkscape-font-specification:'Segoe UI, Normal';font-variant-ligatures:normal;font-variant-caps:normal;font-variant-numeric:normal;font-feature-settings:normal;text-align:start;writing-mode:lr-tb;text-anchor:start"
         id="path907"
         inkscape:connector-curvature="0" />
      <path
         d="m 437.79883,295.50387 h -1.28125 v -4.59375 q 0,-1.32813 -0.41406,-1.92188 -0.40625,-0.59375 -1.375,-0.59375 -0.82032,0 -1.39844,0.75 -0.57031,0.75 -0.57031,1.79688 v 4.5625 h -1.28125 v -4.75 q 0,-2.35938 -1.82032,-2.35938 -0.84375,0 -1.39062,0.71094 -0.54688,0.70313 -0.54688,1.83594 v 4.5625 h -1.28125 v -8 h 1.28125 v 1.26562 h 0.0312 q 0.85157,-1.45312 2.48438,-1.45312 0.82031,0 1.42969,0.46094 0.60937,0.45312 0.83593,1.19531 0.89063,-1.65625 2.65625,-1.65625 2.64063,0 2.64063,3.25781 z"
         style="font-style:normal;font-variant:normal;font-weight:normal;font-stretch:normal;font-size:16px;font-family:'Segoe UI';-inkscape-font-specification:'Segoe UI, Normal';font-variant-ligatures:normal;font-variant-caps:normal;font-variant-numeric:normal;font-feature-settings:normal;text-align:start;writing-mode:lr-tb;text-anchor:start"
         id="path909"
         inkscape:connector-curvature="0" />
      <path
         d="m 441.5332,294.34762 h -0.0312 v 4.83594 h -1.28125 v -11.67969 h 1.28125 v 1.40625 h 0.0312 q 0.94532,-1.59375 2.76563,-1.59375 1.54687,0 2.41406,1.07812 0.86719,1.07032 0.86719,2.875 0,2.00782 -0.97656,3.21875 -0.97657,1.20313 -2.67188,1.20313 -1.55469,0 -2.39844,-1.34375 z m -0.0312,-3.22656 v 1.11718 q 0,0.99219 0.64063,1.6875 0.64844,0.6875 1.64062,0.6875 1.16407,0 1.82032,-0.89062 0.66406,-0.89063 0.66406,-2.47656 0,-1.33594 -0.61719,-2.09375 -0.61719,-0.75782 -1.67187,-0.75782 -1.11719,0 -1.79688,0.78125 -0.67969,0.77344 -0.67969,1.94532 z"
         style="font-style:normal;font-variant:normal;font-weight:normal;font-stretch:normal;font-size:16px;font-family:'Segoe UI';-inkscape-font-specification:'Segoe UI, Normal';font-variant-ligatures:normal;font-variant-caps:normal;font-variant-numeric:normal;font-feature-settings:normal;text-align:start;writing-mode:lr-tb;text-anchor:start"
         id="path911"
         inkscape:connector-curvature="0" />
      <path
         d="m 450.9082,295.50387 h -1.28125 v -11.84375 h 1.28125 z"
         style="font-style:normal;font-variant:normal;font-weight:normal;font-stretch:normal;font-size:16px;font-family:'Segoe UI';-inkscape-font-specification:'Segoe UI, Normal';font-variant-ligatures:normal;font-variant-caps:normal;font-variant-numeric:normal;font-feature-settings:normal;text-align:start;writing-mode:lr-tb;text-anchor:start"
         id="path913"
         inkscape:connector-curvature="0" />
      <path
         d="m 459.93164,291.82418 h -5.64844 q 0.0312,1.33594 0.71875,2.0625 0.6875,0.72656 1.89063,0.72656 1.35156,0 2.48437,-0.89062 v 1.20312 q -1.05468,0.76563 -2.78906,0.76563 -1.69531,0 -2.66406,-1.08594 -0.96875,-1.09375 -0.96875,-3.07031 0,-1.86719 1.05469,-3.03906 1.0625,-1.17969 2.63281,-1.17969 1.57031,0 2.42969,1.01562 0.85937,1.01563 0.85937,2.82032 z m -1.3125,-1.08594 q -0.008,-1.10937 -0.53906,-1.72656 -0.52344,-0.61719 -1.46094,-0.61719 -0.90625,0 -1.53906,0.64844 -0.63281,0.64844 -0.78125,1.69531 z"
         style="font-style:normal;font-variant:normal;font-weight:normal;font-stretch:normal;font-size:16px;font-family:'Segoe UI';-inkscape-font-specification:'Segoe UI, Normal';font-variant-ligatures:normal;font-variant-caps:normal;font-variant-numeric:normal;font-feature-settings:normal;text-align:start;writing-mode:lr-tb;text-anchor:start"
         id="path915"
         inkscape:connector-curvature="0" />
      <path
         d="m 461.39258,295.21481 v -1.375 q 1.04687,0.77343 2.30469,0.77343 1.6875,0 1.6875,-1.125 0,-0.32031 -0.14844,-0.53906 -0.14063,-0.22656 -0.39063,-0.39844 -0.24218,-0.17187 -0.57812,-0.30468 -0.32813,-0.14063 -0.71094,-0.28907 -0.53125,-0.21093 -0.9375,-0.42187 -0.39844,-0.21875 -0.67187,-0.48438 -0.26563,-0.27343 -0.40625,-0.61718 -0.13282,-0.34375 -0.13282,-0.80469 0,-0.5625 0.25782,-0.99219 0.25781,-0.4375 0.6875,-0.72656 0.42968,-0.29688 0.97656,-0.44531 0.55469,-0.14844 1.14062,-0.14844 1.03907,0 1.85938,0.35937 v 1.29688 q -0.88281,-0.57813 -2.03125,-0.57813 -0.35938,0 -0.64844,0.0859 -0.28906,0.0781 -0.5,0.22656 -0.20312,0.14844 -0.32031,0.35938 -0.10938,0.20312 -0.10938,0.45312 0,0.3125 0.10938,0.52344 0.11719,0.21094 0.33594,0.375 0.21875,0.16406 0.53125,0.29688 0.3125,0.13281 0.71093,0.28906 0.53125,0.20312 0.95313,0.42187 0.42187,0.21094 0.71875,0.48438 0.29687,0.26562 0.45312,0.61719 0.16407,0.35156 0.16407,0.83593 0,0.59375 -0.26563,1.03125 -0.25781,0.4375 -0.69531,0.72657 -0.4375,0.28906 -1.00781,0.42968 -0.57032,0.14063 -1.19532,0.14063 -1.23437,0 -2.14062,-0.47656 z"
         style="font-style:normal;font-variant:normal;font-weight:normal;font-stretch:normal;font-size:16px;font-family:'Segoe UI';-inkscape-font-specification:'Segoe UI, Normal';font-variant-ligatures:normal;font-variant-caps:normal;font-variant-numeric:normal;font-feature-settings:normal;text-align:start;writing-mode:lr-tb;text-anchor:start"
         id="path917"
         inkscape:connector-curvature="0" />
    </g>
    <g
       aria-label="aVE"
       style="font-style:normal;font-variant:normal;font-weight:bold;font-stretch:normal;font-size:10.58333302px;line-height:1.25;font-family:'Segoe UI';-inkscape-font-specification:'Segoe UI, Bold';font-variant-ligatures:normal;font-variant-caps:normal;font-variant-numeric:normal;font-feature-settings:normal;text-align:start;letter-spacing:0px;word-spacing:0px;writing-mode:lr-tb;text-anchor:start;fill:#176fc1;fill-opacity:1;stroke:none;stroke-width:0.26458332px;stroke-linecap:butt;stroke-linejoin:miter;stroke-opacity:1"
       id="text869">
      <path
         d="m 60.604727,59.745388 h -1.545125 v -0.759644 h -0.02067 q -0.532267,0.888835 -1.576131,0.888835 -0.769979,0 -1.214396,-0.434082 -0.439249,-0.43925 -0.439249,-1.167887 0,-1.539958 1.824178,-1.777669 l 1.436604,-0.191203 q 0,-0.868164 -0.940511,-0.868164 -0.945678,0 -1.79834,0.563273 v -1.229899 q 0.341065,-0.1757 0.930176,-0.310059 0.594279,-0.134359 1.080038,-0.134359 2.263427,0 2.263427,2.25826 z m -1.53479,-2.149739 v -0.356568 l -0.961181,0.124024 q -0.795817,0.103352 -0.795817,0.718302 0,0.279053 0.191202,0.45992 0.196371,0.1757 0.5271,0.1757 0.45992,0 0.749308,-0.315226 0.289388,-0.320394 0.289388,-0.806152 z"
         id="path4577"
         inkscape:connector-curvature="0" />
      <path
         d="m 68.237336,52.334988 -2.552815,7.4104 h -1.891358 l -2.52181,-7.4104 h 1.79834 l 1.545125,5.157308 q 0.124024,0.418579 0.149862,0.738973 h 0.03101 q 0.03617,-0.346232 0.160197,-0.759644 l 1.53479,-5.136637 z"
         id="path4579"
         inkscape:connector-curvature="0" />
      <path
         d="m 73.580679,59.745388 h -4.444173 v -7.4104 h 4.273641 v 1.35909 h -2.604492 v 1.648478 h 2.423625 v 1.353923 h -2.423625 v 1.694987 h 2.775024 z"
         id="path4581"
         inkscape:connector-curvature="0" />
    </g>
  </g>
</svg>
