<?xml version="1.0" encoding="UTF-8" standalone="no"?>
<!-- Created with Inkscape (http://www.inkscape.org/) -->

<svg
   width="99.474792mm"
   height="25.495024mm"
   viewBox="0 0 99.474792 25.495024"
   version="1.1"
   id="svg1"
   xml:space="preserve"
   sodipodi:docname="tu_kaiserslautern.svg"
   xmlns:inkscape="http://www.inkscape.org/namespaces/inkscape"
   xmlns:sodipodi="http://sodipodi.sourceforge.net/DTD/sodipodi-0.dtd"
   xmlns="http://www.w3.org/2000/svg"
   xmlns:svg="http://www.w3.org/2000/svg"><sodipodi:namedview
     id="namedview1"
     pagecolor="#ffffff"
     bordercolor="#000000"
     borderopacity="0.25"
     inkscape:showpageshadow="2"
     inkscape:pageopacity="0.0"
     inkscape:pagecheckerboard="0"
     inkscape:deskcolor="#d1d1d1"
     inkscape:document-units="mm"
     showgrid="false" /><defs
     id="defs1"><clipPath
       clipPathUnits="userSpaceOnUse"
       id="clipPath743"><path
         d="M -32768,32767 H 32767 V -32768 H -32768 Z"
         transform="translate(-962.1865,-130.30003)"
         id="path743" /></clipPath><clipPath
       clipPathUnits="userSpaceOnUse"
       id="clipPath744"><path
         d="M -32768,32767 H 32767 V -32768 H -32768 Z"
         transform="translate(-1030.5276,-130.30003)"
         id="path744" /></clipPath><clipPath
       clipPathUnits="userSpaceOnUse"
       id="clipPath745"><path
         d="M -32768,32767 H 32767 V -32768 H -32768 Z"
         transform="translate(-1087.033,-187.05995)"
         id="path745" /></clipPath><clipPath
       clipPathUnits="userSpaceOnUse"
       id="clipPath746"><path
         d="M -32768,32767 H 32767 V -32768 H -32768 Z"
         transform="translate(-1217.6063,-86.139189)"
         id="path746" /></clipPath><clipPath
       clipPathUnits="userSpaceOnUse"
       id="clipPath747"><path
         d="M -32768,32767 H 32767 V -32768 H -32768 Z"
         transform="translate(-1275.6389,-125.33674)"
         id="path747" /></clipPath><clipPath
       clipPathUnits="userSpaceOnUse"
       id="clipPath748"><path
         d="M -32768,32767 H 32767 V -32768 H -32768 Z"
         transform="translate(-1361.4153,-145.3172)"
         id="path748" /></clipPath><clipPath
       clipPathUnits="userSpaceOnUse"
       id="clipPath749"><path
         d="M -32768,32767 H 32767 V -32768 H -32768 Z"
         transform="translate(-1342.4528,-181.33307)"
         id="path749" /></clipPath><clipPath
       clipPathUnits="userSpaceOnUse"
       id="clipPath750"><path
         d="M -32768,32767 H 32767 V -32768 H -32768 Z"
         transform="translate(-1131.4482,-161.09808)"
         id="path750" /></clipPath><clipPath
       clipPathUnits="userSpaceOnUse"
       id="clipPath751"><path
         d="M -32768,32767 H 32767 V -32768 H -32768 Z"
         transform="translate(-1092.1235,-161.09808)"
         id="path751" /></clipPath><clipPath
       clipPathUnits="userSpaceOnUse"
       id="clipPath752"><path
         d="m 961.55,84.485 h 401.138 V 189.351 H 961.55 Z"
         transform="matrix(0.94173487,0,0,-0.94173487,0,3174.0177)"
         id="path752" /></clipPath></defs><g
     id="g1"
     inkscape:groupmode="layer"
     inkscape:label="1"
     transform="matrix(0.26458333,0,0,0.26458334,-239.74546,-792.92928)"><g
       clip-path="url(#clipPath752)"
       id="g809"
       inkscape:export-filename="g809.svg"
       inkscape:export-xdpi="96"
       inkscape:export-ydpi="96"><path
         d="m 0,0 h 22.908 c 4.327,0 7.89,-1.4 10.69,-4.2 2.8,-2.8 4.2,-6.236 4.2,-10.308 0,-1.782 -0.255,-3.436 -0.764,-4.963 -0.509,-1.528 -1.145,-2.8 -1.909,-3.691 -0.764,-0.891 -1.527,-1.782 -2.291,-2.418 -0.763,-0.636 -1.4,-1.145 -1.909,-1.4 l -0.763,-0.382 9.29,-16.672 h -9.927 l -8.399,15.4 H 9.418 v -15.4 H 0 Z m 26.853,-10.181 c -1.146,1.145 -2.546,1.654 -4.2,1.654 H 9.418 v -11.581 h 13.235 c 1.654,0 3.054,0.509 4.2,1.655 1.145,1.145 1.654,2.418 1.654,4.072 0,1.655 -0.509,3.182 -1.654,4.2"
         style="fill:#060605;fill-opacity:1;fill-rule:nonzero;stroke:none"
         transform="matrix(0.94173487,0,0,-0.94173487,906.12458,3051.3096)"
         clip-path="url(#clipPath743)"
         id="path801" /><path
         d="m 0,0 c 4.454,0 8.145,-1.4 11.072,-4.2 2.927,-2.8 4.454,-6.363 4.454,-10.563 0,-4.199 -1.527,-7.635 -4.454,-10.563 C 8.145,-28.125 4.454,-29.525 0,-29.525 h -14.508 v -14.381 h -9.291 V 0 Z m -14.508,-8.399 v -12.6 h 14.126 c 1.909,0 3.436,0.637 4.709,1.782 1.273,1.145 1.909,2.673 1.909,4.454 0,1.782 -0.636,3.309 -1.909,4.455 -1.273,1.272 -2.8,1.781 -4.709,1.781 h -14.126 z"
         style="fill:#060605;fill-opacity:1;fill-rule:nonzero;stroke:none"
         transform="matrix(0.94173487,0,0,-0.94173487,970.48377,3051.3096)"
         clip-path="url(#clipPath744)"
         id="path802" /><path
         d="m 0,0 v -8.399 h -15.017 v -35.507 h -9.29 V -8.399 H -39.325 V 0 Z"
         style="fill:#060605;fill-opacity:1;fill-rule:nonzero;stroke:none"
         transform="matrix(0.94173487,0,0,-0.94173487,1023.6969,2997.8568)"
         clip-path="url(#clipPath745)"
         id="path803" /><path
         d="M 0,0 V 10.181 H -1.145 V 4.963 c 0,-2.545 -1.4,-4.199 -3.691,-4.199 -2.164,0 -3.436,1.4 -3.436,3.69 v 5.727 H -9.418 V 4.327 c 0,-2.8 1.655,-4.582 4.327,-4.582 1.909,0 3.309,0.764 3.946,2.291 V 0 Z m -17.435,0.764 c -2.418,0 -4.2,1.781 -4.2,4.327 0,2.545 1.782,4.327 4.2,4.327 2.545,0 4.327,-1.782 4.327,-4.327 -0.127,-2.546 -1.909,-4.327 -4.327,-4.327 M -12.217,0 v 10.181 h -1.018 V 8.018 c -0.764,1.4 -2.418,2.29 -4.455,2.29 -3.054,0 -5.218,-2.163 -5.218,-5.345 0,-3.054 2.164,-5.345 5.218,-5.345 2.037,0 3.564,0.891 4.455,2.291 v -2.164 h 1.018 z m -18.326,0.764 c -2.418,0 -4.2,1.781 -4.2,4.327 0,2.545 1.782,4.327 4.2,4.327 2.545,0 4.327,-1.782 4.327,-4.327 -0.128,-2.546 -1.909,-4.327 -4.327,-4.327 M -25.198,0 v 15.399 h -1.146 V 8.272 c -0.763,1.4 -2.291,2.164 -4.327,2.164 -3.054,0 -5.218,-2.164 -5.218,-5.345 0,-3.055 2.164,-5.346 5.218,-5.346 2.036,0 3.564,0.891 4.455,2.291 v -2.163 h 1.018 z m -17.181,10.436 c -1.909,0 -3.309,-0.891 -3.945,-2.291 v 2.163 h -1.018 V 0.127 h 1.145 v 5.091 c 0,2.672 1.4,4.2 3.691,4.2 2.163,0 3.436,-1.4 3.436,-3.691 V 0 h 1.145 v 5.854 c -0.127,2.8 -1.782,4.582 -4.454,4.582 m -13.49,-9.672 c -2.418,0 -4.2,1.781 -4.2,4.327 0,2.545 1.782,4.327 4.2,4.327 2.545,0 4.327,-1.782 4.327,-4.327 0,-2.546 -1.782,-4.327 -4.327,-4.327 M -50.524,0 v 10.181 h -1.018 V 8.018 c -0.764,1.4 -2.418,2.29 -4.454,2.29 -3.055,0 -5.218,-2.163 -5.218,-5.345 0,-3.054 2.163,-5.345 5.218,-5.345 2.036,0 3.563,0.891 4.454,2.291 v -2.164 h 1.018 z m -12.217,0 v 1.145 h -8.909 v 13.49 h -1.145 V 0.127 h 10.054 z"
         style="fill:#060605;fill-opacity:1;fill-rule:nonzero;stroke:none"
         transform="matrix(0.94173487,0,0,-0.94173487,1146.6623,3092.8974)"
         clip-path="url(#clipPath746)"
         id="path804" /><path
         d="m 0,0 c -1.909,0 -3.309,-0.891 -3.945,-2.291 v 2.164 h -1.018 v -10.181 h 1.145 v 5.217 c 0,2.673 1.4,4.2 3.691,4.2 2.163,0 3.436,-1.4 3.436,-3.69 v -5.727 h 1.145 v 5.854 C 4.327,-1.654 2.673,0 0,0 m -8.399,0 c -1.655,0 -2.8,-0.764 -3.309,-2.164 v 1.909 h -1.018 v -10.181 h 1.145 V -5.6 c 0,2.927 1.018,4.455 3.182,4.455 0.636,0 1.145,-0.128 1.654,-0.509 h 0.127 v 1.145 C -7.127,-0.127 -7.763,0 -8.399,0 m -11.963,-1.018 c 2.418,0 3.945,-1.4 4.072,-3.691 h -8.399 c 0.382,2.291 2.036,3.691 4.327,3.691 m 5.218,-4.582 v 0.637 c 0,2.927 -2.037,4.963 -5.218,4.963 -3.055,0 -5.345,-2.164 -5.345,-5.345 0,-3.309 2.29,-5.345 5.854,-5.345 1.654,0 3.054,0.509 3.945,1.4 v 1.145 h -0.127 c -1.018,-1.018 -2.291,-1.527 -3.945,-1.527 -2.8,0 -4.582,1.527 -4.709,4.072 z m -12.091,-3.436 v 0 c -0.509,-0.382 -1.018,-0.509 -1.654,-0.509 -1.273,0 -2.036,0.891 -2.036,2.291 v 6.109 h 3.563 v 1.018 h -3.436 v 2.672 h -0.891 l -0.254,-2.672 h -2.037 v -1.018 h 2.037 v -6.236 c 0,-2.037 1.145,-3.309 3.054,-3.309 0.764,0 1.273,0.127 1.782,0.382 z m -8.526,-1.4 v 10.181 h -1.146 v -5.217 c 0,-2.546 -1.4,-4.2 -3.69,-4.2 -2.164,0 -3.436,1.4 -3.436,3.691 v 5.726 h -1.146 v -5.854 c 0,-2.8 1.655,-4.581 4.327,-4.581 1.909,0 3.309,0.763 3.945,2.29 v -2.036 z m -17.563,0.891 c -2.418,0 -4.199,1.782 -4.199,4.327 0,2.545 1.781,4.327 4.199,4.327 2.545,0 4.327,-1.782 4.327,-4.327 0,-2.672 -1.782,-4.327 -4.327,-4.327 m 5.345,-0.891 v 10.181 h -1.018 v -2.163 c -0.763,1.4 -2.418,2.291 -4.454,2.291 -3.054,0 -5.218,-2.164 -5.218,-5.345 0,-3.055 2.164,-5.346 5.218,-5.346 2.036,0 3.563,0.891 4.454,2.291 v -2.163 h 1.018 z m -14.126,0 h 1.145 V 4.963 h -1.145 z M -68.341,0 c -2.291,0 -3.818,-1.273 -3.818,-3.054 0,-1.782 0.891,-2.546 3.691,-2.673 2.291,-0.127 2.927,-0.636 2.927,-1.782 0,-1.272 -1.146,-2.036 -2.8,-2.036 -1.654,0 -3.054,0.509 -3.818,1.4 h -0.127 v -1.273 c 0.891,-0.763 2.163,-1.145 3.945,-1.145 2.418,0 3.818,1.145 3.818,3.054 0,1.909 -1.018,2.8 -3.818,2.927 -2.164,0.128 -2.8,0.51 -2.8,1.655 0,1.145 1.146,2.036 2.673,2.036 1.527,0 2.545,-0.382 3.309,-1.145 h 0.127 v 1.272 C -65.668,-0.255 -66.941,0 -68.341,0 m -6.491,0 c -1.654,0 -2.799,-0.764 -3.308,-2.164 v 1.909 h -1.018 v -10.181 h 1.145 V -5.6 c 0,2.927 1.018,4.455 3.181,4.455 0.637,0 1.146,-0.128 1.655,-0.509 h 0.127 v 1.145 C -73.686,-0.127 -74.195,0 -74.832,0 m -11.962,-1.018 c 2.418,0 3.945,-1.4 4.072,-3.691 h -8.399 c 0.381,2.291 2.036,3.691 4.327,3.691 m 5.09,-4.582 v 0.637 c 0,2.927 -2.036,4.963 -5.218,4.963 -3.054,0 -5.345,-2.164 -5.345,-5.345 0,-3.309 2.291,-5.345 5.854,-5.345 1.655,0 3.055,0.509 3.946,1.4 v 1.145 h -0.128 c -1.018,-1.018 -2.29,-1.527 -3.945,-1.527 -2.8,0 -4.581,1.527 -4.709,4.072 z M -97.739,0 c -2.291,0 -3.818,-1.273 -3.818,-3.054 0,-1.782 0.891,-2.546 3.691,-2.673 2.29,-0.127 2.927,-0.636 2.927,-1.782 0,-1.272 -1.146,-2.036 -2.8,-2.036 -1.655,0 -3.054,0.509 -3.818,1.4 h -0.127 v -1.273 c 0.891,-0.763 2.163,-1.145 3.945,-1.145 2.418,0 3.818,1.145 3.818,3.054 0,1.909 -1.018,2.8 -3.818,2.927 -2.164,0.128 -2.8,0.51 -2.8,1.655 0,1.145 1.145,2.036 2.673,2.036 1.527,0 2.545,-0.382 3.309,-1.145 h 0.127 v 1.272 C -95.067,-0.255 -96.339,0 -97.739,0 m -7.254,-10.436 h 1.145 v 10.181 h -1.145 z m 0.509,14.381 c -0.509,0 -0.764,-0.382 -0.764,-0.891 0,-0.381 0.382,-0.763 0.764,-0.763 0.509,0 0.764,0.381 0.764,0.763 -0.001,0.509 -0.255,0.891 -0.764,0.891 m -9.036,-13.49 c -2.418,0 -4.2,1.782 -4.2,4.327 0,2.545 1.782,4.327 4.2,4.327 2.545,0 4.327,-1.782 4.327,-4.327 0,-2.672 -1.782,-4.327 -4.327,-4.327 m 5.345,-0.891 v 10.181 h -1.018 v -2.163 c -0.764,1.4 -2.418,2.291 -4.454,2.291 -3.055,0 -5.218,-2.164 -5.218,-5.345 0,-3.055 2.163,-5.346 5.218,-5.346 2.036,0 3.563,0.891 4.454,2.291 v -2.163 h 1.018 z m -21.38,0 v 7 l 8.145,-7 h 1.781 l -8.654,7.382 8.4,7.254 h -1.782 l -8.017,-6.873 V 4.2 h -1.146 v -14.508 h 1.273 z"
         style="fill:#060605;fill-opacity:1;fill-rule:nonzero;stroke:none"
         transform="matrix(0.94173487,0,0,-0.94173487,1201.3136,3055.9837)"
         clip-path="url(#clipPath747)"
         id="path805" /><path
         d="m 0,0 v 0 c -0.509,-0.382 -1.018,-0.636 -1.655,-0.636 -1.145,0 -1.781,0.763 -1.781,1.909 v 5.218 h 3.309 v 1.654 h -3.309 v 2.8 h -1.527 l -0.255,-2.8 H -7.127 V 6.491 h 1.909 V 1.145 c 0,-2.29 1.145,-3.563 3.309,-3.563 0.763,0 1.4,0.127 1.909,0.382 z m -12.09,12.599 c -0.764,0 -1.146,-0.509 -1.146,-1.145 0,-0.636 0.509,-1.146 1.146,-1.146 0.636,0 1.145,0.51 1.145,1.146 0,0.763 -0.509,1.145 -1.145,1.145 m -4.327,0 c -0.636,0 -1.145,-0.509 -1.145,-1.145 0,-0.636 0.509,-1.146 1.145,-1.146 0.636,0 1.145,0.51 1.145,1.146 0.127,0.763 -0.382,1.145 -1.145,1.145 m 2.291,-13.108 c -2.164,0 -3.564,1.527 -3.564,3.691 0,2.163 1.4,3.69 3.564,3.69 2.036,0 3.563,-1.527 3.563,-3.69 -0.127,-2.291 -1.527,-3.691 -3.563,-3.691 m 5.345,-1.527 V 8.272 h -1.527 l -0.128,-1.654 c -0.763,1.145 -2.163,1.909 -3.945,1.909 -2.927,0 -5.091,-2.291 -5.091,-5.345 0,-3.055 2.164,-5.345 5.091,-5.345 1.782,0 3.182,0.763 3.945,1.781 l 0.128,-1.654 z M -20.999,0 v 0 c -0.509,-0.382 -1.018,-0.636 -1.654,-0.636 -1.145,0 -1.782,0.763 -1.782,1.909 v 5.218 h 3.309 v 1.654 h -3.309 v 2.8 h -1.527 l -0.255,-2.8 h -1.908 V 6.491 h 1.908 V 1.145 c 0,-2.29 1.146,-3.563 3.309,-3.563 0.764,0 1.4,0.127 1.909,0.382 z m -10.69,-2.036 h 1.909 V 8.272 h -1.909 z m 0.891,14.762 c -0.764,0 -1.273,-0.509 -1.273,-1.272 0,-0.764 0.509,-1.273 1.273,-1.273 0.764,0 1.273,0.509 1.273,1.273 0,0.763 -0.509,1.272 -1.273,1.272 M -37.67,8.527 c -2.418,0 -3.945,-1.273 -3.945,-3.309 0,-1.909 1.018,-2.673 3.69,-2.927 1.782,-0.128 2.418,-0.509 2.418,-1.4 0,-0.891 -0.891,-1.527 -2.291,-1.527 -1.654,0 -2.927,0.509 -3.69,1.4 h -0.127 v -2.037 c 0.89,-0.763 2.163,-1.018 3.945,-1.018 2.545,0 4.072,1.273 4.072,3.182 0,2.036 -1.018,2.927 -3.818,3.054 -1.654,0.127 -2.291,0.382 -2.291,1.146 0,0.89 0.891,1.527 2.164,1.527 1.4,0 2.545,-0.382 3.182,-1.146 h 0.127 v 2.037 c -0.891,0.636 -2.164,1.018 -3.436,1.018 m -6.745,0 c -1.528,0 -2.673,-0.637 -3.182,-1.909 v 1.654 h -1.527 V -2.036 h 1.909 v 4.709 c 0,2.672 0.891,4.072 2.927,4.072 0.636,0 1.145,-0.127 1.654,-0.509 h 0.128 v 1.909 c -0.637,0.127 -1.273,0.382 -1.909,0.382 M -56.633,6.745 c 1.909,0 3.182,-1.018 3.436,-2.8 h -6.872 c 0.255,1.782 1.654,2.8 3.436,2.8 m 5.091,-4.2 v 1.018 c 0,2.928 -2.036,4.964 -5.218,4.964 -3.182,0 -5.345,-2.164 -5.345,-5.345 0,-3.182 2.291,-5.345 5.981,-5.345 1.655,0 3.055,0.381 3.946,1.145 v 1.909 h -0.128 c -1.018,-0.891 -2.29,-1.4 -3.818,-1.4 -2.29,0 -3.818,1.145 -4.072,3.054 z m -15.399,-4.581 4.327,10.308 h -1.909 L -67.832,0 -71.141,8.272 h -2.036 l 4.327,-10.308 z m -9.672,0 h 1.909 V 8.272 h -1.909 z m 0.891,14.762 c -0.764,0 -1.273,-0.509 -1.273,-1.272 0,-0.764 0.509,-1.273 1.273,-1.273 0.763,0 1.272,0.509 1.272,1.273 0,0.763 -0.509,1.272 -1.272,1.272 m -7.764,-4.199 c -1.781,0 -2.927,-0.637 -3.69,-1.782 v 1.654 h -1.527 V -1.909 h 1.909 v 5.218 c 0,2.163 1.145,3.436 3.054,3.436 1.782,0 2.8,-1.145 2.8,-3.054 v -5.727 h 1.909 v 5.981 c -0.255,2.8 -1.782,4.582 -4.455,4.582 m -8.144,4.072 h -2.037 V 4.327 c 0,-3.054 -1.527,-4.582 -4.199,-4.582 -2.673,0 -4.2,1.655 -4.2,4.582 v 8.272 h -2.164 V 4.2 c 0,-4.2 2.164,-6.363 6.236,-6.363 4.073,0 6.236,2.163 6.236,6.363 z m -24.563,-5.854 c 1.909,0 3.182,-1.018 3.437,-2.8 h -6.873 c 0.382,1.782 1.782,2.8 3.436,2.8 m 5.218,-4.2 v 1.018 c 0,2.928 -2.036,4.964 -5.218,4.964 -3.181,0 -5.345,-2.164 -5.345,-5.345 0,-3.182 2.291,-5.345 5.982,-5.345 1.654,0 3.054,0.381 3.945,1.145 v 1.909 h -0.127 c -1.018,-0.891 -2.291,-1.4 -3.818,-1.4 -2.291,0 -3.818,1.145 -4.073,3.054 z m -16.671,5.982 c -1.528,0 -2.673,-0.509 -3.437,-1.527 v 6.363 h -1.908 V -2.036 h 1.908 v 5.345 c 0,2.163 1.146,3.436 3.055,3.436 1.782,0 2.8,-1.145 2.8,-3.054 v -5.727 h 1.909 v 5.981 c -0.128,2.8 -1.782,4.582 -4.327,4.582 m -11.2,0 c -3.309,0 -5.472,-2.164 -5.472,-5.345 0,-3.055 2.163,-5.345 5.472,-5.345 1.4,0 2.546,0.381 3.309,1.018 v 1.909 h -0.127 c -0.764,-0.891 -1.782,-1.4 -3.054,-1.4 -2.291,0 -3.818,1.527 -3.818,3.69 0,2.164 1.527,3.691 3.818,3.691 1.272,0 2.29,-0.382 3.054,-1.4 h 0.127 v 2.036 c -0.763,0.764 -1.909,1.146 -3.309,1.146 m -10.944,0 c -2.418,0 -3.946,-1.273 -3.946,-3.309 0,-1.909 1.018,-2.673 3.691,-2.927 1.782,-0.128 2.418,-0.509 2.418,-1.4 0,-0.891 -0.891,-1.527 -2.291,-1.527 -1.654,0 -2.927,0.509 -3.69,1.4 h -0.128 v -2.037 c 0.891,-0.763 2.164,-1.018 3.946,-1.018 2.545,0 4.072,1.273 4.072,3.182 0,2.036 -1.018,2.927 -3.818,3.054 -1.654,0.127 -2.291,0.382 -2.291,1.146 0,0.89 0.891,1.527 2.164,1.527 1.4,0 2.545,-0.382 3.182,-1.146 h 0.127 v 2.037 c -0.764,0.636 -2.036,1.018 -3.436,1.018 m -8.145,-10.563 h 1.909 V 8.272 h -1.909 z m 1.018,14.762 c -0.764,0 -1.273,-0.509 -1.273,-1.272 0,-0.764 0.509,-1.273 1.273,-1.273 0.763,0 1.272,0.509 1.272,1.273 -0.127,0.763 -0.636,1.272 -1.272,1.272 m -7.763,-4.199 c -1.782,0 -2.927,-0.637 -3.691,-1.782 v 1.654 h -1.654 V -1.909 h 1.909 v 5.218 c 0,2.163 1.145,3.436 3.054,3.436 1.782,0 2.8,-1.145 2.8,-3.054 v -5.727 h 1.909 v 5.981 c -0.128,2.8 -1.782,4.582 -4.327,4.582 m -12.218,0 c -1.527,0 -2.672,-0.509 -3.436,-1.527 v 6.363 h -1.909 V -2.036 h 1.909 v 5.345 c 0,2.163 1.146,3.436 3.054,3.436 1.782,0 2.8,-1.145 2.8,-3.054 v -5.727 h 1.909 v 5.981 c -0.127,2.8 -1.654,4.582 -4.327,4.582 m -11.199,0 c -3.309,0 -5.472,-2.164 -5.472,-5.345 0,-3.055 2.163,-5.345 5.472,-5.345 1.4,0 2.545,0.381 3.309,1.018 v 1.909 h -0.127 c -0.764,-0.891 -1.782,-1.4 -3.055,-1.4 -2.29,0 -3.818,1.527 -3.818,3.69 0,2.164 1.528,3.691 3.818,3.691 1.273,0 2.291,-0.382 3.055,-1.4 h 0.127 v 2.036 c -0.636,0.764 -1.782,1.146 -3.309,1.146 m -12.217,-1.782 c 1.909,0 3.181,-1.018 3.436,-2.8 h -6.872 c 0.381,1.782 1.781,2.8 3.436,2.8 m 5.217,-4.2 v 1.018 c 0,2.928 -2.036,4.964 -5.217,4.964 -3.182,0 -5.346,-2.164 -5.346,-5.345 0,-3.182 2.291,-5.345 5.982,-5.345 1.654,0 3.054,0.381 3.945,1.145 v 1.909 h -0.127 c -1.018,-0.891 -2.291,-1.4 -3.818,-1.4 -2.291,0 -3.818,1.145 -4.072,3.054 z m -14.508,8.145 h 4.709 v 1.909 h -11.708 V 10.69 h 4.836 V -2.036 h 2.163 z"
         style="fill:#060605;fill-opacity:1;fill-rule:nonzero;stroke:none"
         transform="matrix(0.94173487,0,0,-0.94173487,1282.0923,3037.1674)"
         clip-path="url(#clipPath748)"
         id="path806" /><path
         d="M 0,0 C 1.909,0 3.182,-1.018 3.436,-2.8 H -3.436 C -3.182,-1.145 -1.782,0 0,0 m 5.218,-4.327 v 1.018 c 0,2.927 -2.036,4.963 -5.218,4.963 -3.182,0 -5.345,-2.163 -5.345,-5.345 0,-3.181 2.291,-5.345 5.981,-5.345 1.655,0 3.055,0.382 3.946,1.146 v 1.909 H 4.454 c -1.018,-0.891 -2.29,-1.4 -3.818,-1.4 -2.29,0 -3.818,1.145 -4.072,3.054 z m -16.799,5.981 c -1.527,0 -2.673,-0.509 -3.436,-1.527 V 6.49 h -1.909 V -8.909 h 1.909 v 5.473 c 0,2.163 1.145,3.436 3.054,3.436 1.782,0 2.8,-1.145 2.8,-3.054 v -5.727 h 1.909 V -2.8 C -7.381,0 -8.908,1.654 -11.581,1.654 m -11.072,0 c -3.309,0 -5.472,-2.163 -5.472,-5.345 0,-3.054 2.163,-5.345 5.472,-5.345 1.4,0 2.545,0.382 3.309,1.018 v 2.037 h -0.127 c -0.764,-0.891 -1.782,-1.4 -3.055,-1.4 -2.291,0 -3.818,1.527 -3.818,3.69 0,2.164 1.527,3.691 3.818,3.691 1.273,0 2.291,-0.382 3.055,-1.4 h 0.127 v 2.036 c -0.764,0.764 -1.909,1.018 -3.309,1.018 m -10.945,0 c -2.418,0 -3.945,-1.272 -3.945,-3.308 0,-1.909 1.018,-2.673 3.691,-2.928 1.781,-0.127 2.418,-0.509 2.418,-1.399 0,-0.891 -0.891,-1.528 -2.291,-1.528 -1.655,0 -2.927,0.509 -3.691,1.4 h -0.127 v -2.036 c 0.891,-0.764 2.163,-1.018 3.945,-1.018 2.546,0 4.073,1.273 4.073,3.182 0,2.036 -1.018,2.927 -3.818,3.054 -1.655,0.127 -2.291,0.382 -2.291,1.145 0,0.891 0.891,1.527 2.164,1.527 1.399,0 2.545,-0.381 3.181,-1.145 h 0.127 v 2.036 c -0.89,0.764 -2.036,1.018 -3.436,1.018 m -8.145,-10.435 h 1.909 V 1.527 h -1.909 z m 0.891,14.635 c -0.763,0 -1.273,-0.509 -1.273,-1.272 0,-0.764 0.51,-1.273 1.273,-1.273 0.764,0 1.273,0.509 1.273,1.273 0,0.763 -0.509,1.272 -1.273,1.272 m -12.09,-14.635 h 8.909 v 1.654 h -6.364 L -44.161,0 v 1.527 h -8.527 v -1.654 h 5.982 l -6.363,-7.127 v -1.527 z m -4.327,0 h 1.909 V 6.618 h -1.909 z m -6.109,14.635 c -0.636,0 -1.145,-0.509 -1.145,-1.145 0,-0.637 0.509,-1.146 1.145,-1.146 0.637,0 1.146,0.509 1.146,1.146 0,0.636 -0.382,1.145 -1.146,1.145 m -4.327,0 c -0.636,0 -1.145,-0.509 -1.145,-1.145 0,-0.637 0.509,-1.146 1.145,-1.146 0.764,0 1.146,0.509 1.146,1.146 0.127,0.636 -0.382,1.145 -1.146,1.145 m 2.291,-13.235 c -2.163,0 -3.563,1.527 -3.563,3.69 0,2.164 1.4,3.691 3.563,3.691 2.036,0 3.564,-1.527 3.564,-3.691 0,-2.163 -1.528,-3.69 -3.564,-3.69 m 5.345,-1.4 V 1.527 h -1.527 l -0.127,-1.654 c -0.764,1.145 -2.164,1.909 -3.945,1.909 -2.928,0 -5.091,-2.291 -5.091,-5.345 0,-3.055 2.163,-5.346 5.091,-5.346 1.781,0 3.181,0.764 3.945,1.782 l 0.127,-1.654 z M -73.177,6.745 c -2.164,0 -3.436,-1.273 -3.436,-3.691 V 1.4 h -1.909 v -1.655 h 1.909 v -8.654 h 1.909 v 8.654 h 3.309 V 1.4 h -3.309 v 1.654 c 0,1.273 0.636,2.037 1.782,2.037 0.636,0 1.272,-0.128 1.654,-0.509 h 0.127 v 1.781 c -0.382,0.255 -1.145,0.382 -2.036,0.382 m -15.781,-8.272 v 5.472 h 4.073 c 2.163,0 3.181,-0.891 3.181,-2.672 0,-1.782 -1.018,-2.8 -3.181,-2.8 z m -2.163,7.254 V -8.781 h 2.036 v 5.345 h 4.2 c 3.436,0 5.218,1.527 5.218,4.581 0,3.055 -1.782,4.582 -5.218,4.582 z m -8.782,-9.545 h 6.109 v 1.909 h -6.109 z m -7.763,-3.563 c -2.163,0 -3.563,1.527 -3.563,3.69 0,2.164 1.4,3.691 3.563,3.691 2.036,0 3.564,-1.527 3.564,-3.691 0,-2.163 -1.528,-3.69 -3.564,-3.69 m 5.345,-1.4 V 6.618 h -1.909 V 0.127 c -0.763,1.018 -2.036,1.527 -3.69,1.527 -2.927,0 -5.091,-2.29 -5.091,-5.345 0,-3.054 2.164,-5.345 5.091,-5.345 1.781,0 3.181,0.764 3.945,1.782 l 0.127,-1.655 h 1.527 z m -16.926,10.435 c -1.781,0 -2.927,-0.636 -3.69,-1.781 v 1.654 h -1.528 V -8.781 h 1.909 v 5.345 c 0,2.163 1.146,3.436 3.055,3.436 1.781,0 2.799,-1.145 2.799,-3.054 v -5.727 h 1.91 V -2.8 c -0.255,2.8 -1.91,4.454 -4.455,4.454 m -13.617,-9.035 c -2.164,0 -3.563,1.527 -3.563,3.69 0,2.164 1.399,3.691 3.563,3.691 2.036,0 3.563,-1.527 3.563,-3.691 0,-2.163 -1.527,-3.69 -3.563,-3.69 m 5.345,-1.4 V 1.527 h -1.527 l -0.127,-1.654 c -0.764,1.145 -2.164,1.909 -3.946,1.909 -2.927,0 -5.09,-2.291 -5.09,-5.345 0,-3.055 2.163,-5.346 5.09,-5.346 1.782,0 3.182,0.764 3.946,1.782 l 0.127,-1.654 z m -14.89,0 h 1.909 V 6.618 h -1.909 z m -6.872,10.435 c -1.782,0 -2.927,-0.636 -3.691,-1.781 v 1.654 h -1.527 V -8.781 h 1.909 v 5.345 c 0,2.163 1.145,3.436 3.054,3.436 1.782,0 2.8,-1.145 2.8,-3.054 v -5.727 h 1.909 V -2.8 c -0.254,2.8 -1.782,4.454 -4.454,4.454 m -10.054,-10.435 h 1.909 V 1.527 h -1.909 z m 1.018,14.635 c -0.764,0 -1.273,-0.509 -1.273,-1.272 0,-0.764 0.509,-1.273 1.273,-1.273 0.764,0 1.273,0.509 1.273,1.273 0,0.763 -0.637,1.272 -1.273,1.272 M -166.716,0 c 1.909,0 3.181,-1.018 3.436,-2.8 h -6.873 c 0.382,1.655 1.782,2.8 3.437,2.8 m 5.217,-4.327 v 1.018 c 0,2.927 -2.036,4.963 -5.217,4.963 -3.182,0 -5.346,-2.163 -5.346,-5.345 0,-3.181 2.291,-5.345 5.982,-5.345 1.654,0 3.054,0.382 3.945,1.146 v 1.909 h -0.127 c -1.018,-0.891 -2.291,-1.4 -3.818,-1.4 -2.291,0 -3.818,1.145 -4.073,3.054 z m -16.671,5.981 c -1.527,0 -2.673,-0.509 -3.436,-1.527 V 6.49 h -1.909 V -8.909 h 1.909 v 5.473 c 0,2.163 1.145,3.436 3.054,3.436 1.782,0 2.8,-1.145 2.8,-3.054 v -5.727 h 1.909 V -2.8 c -0.128,2.8 -1.782,4.454 -4.327,4.454 M -195.605,-1.4 v 5.345 h 4.199 c 2.164,0 3.182,-0.891 3.182,-2.672 0,-1.782 -1.018,-2.673 -3.182,-2.673 z m 0,-7.381 v 5.599 h 3.945 l 3.563,-5.599 h 2.545 l -3.818,5.727 c 2.291,0.509 3.309,1.909 3.309,4.327 0,2.927 -1.781,4.454 -5.217,4.454 h -6.364 V -8.781 Z"
         style="fill:#060605;fill-opacity:1;fill-rule:nonzero;stroke:none"
         transform="matrix(0.94173487,0,0,-0.94173487,1264.2346,3003.25)"
         clip-path="url(#clipPath749)"
         id="path807" /><path
         d="M 0,0 V 25.962 H -9.29 V 0 c 0,-2.927 -0.891,-5.345 -2.8,-7.381 -0.891,-0.891 -1.909,-1.655 -2.927,-2.164 l -0.509,-0.254 c -1.4,-0.764 -2.418,-2.164 -2.418,-3.946 0,-2.418 1.909,-4.327 4.327,-4.327 0.382,0 1.145,0.128 1.654,0.382 2.418,0.891 4.709,2.291 6.618,4.2 C -1.782,-9.799 0,-5.345 0,0"
         style="fill:#000000;fill-opacity:1;fill-rule:nonzero;stroke:none"
         transform="matrix(0.94173487,0,0,-0.94173487,1065.5242,3022.306)"
         clip-path="url(#clipPath750)"
         id="path808" /><path
         d="m 0,0 c 0,-5.345 1.782,-9.799 5.345,-13.49 1.909,-1.909 4.2,-3.309 6.618,-4.2 0.509,-0.254 1.272,-0.382 1.654,-0.382 2.418,0 4.327,1.909 4.327,4.327 0,1.782 -1.018,3.182 -2.418,3.946 -0.254,0.127 -0.254,0.127 -0.509,0.254 -1.018,0.509 -2.036,1.273 -2.927,2.164 C 10.181,-5.345 9.29,-2.927 9.29,0 V 25.962 H 0 Z"
         style="fill:#000000;fill-opacity:1;fill-rule:nonzero;stroke:none"
         transform="matrix(0.94173487,0,0,-0.94173487,1028.4908,3022.306)"
         clip-path="url(#clipPath751)"
         id="path809" /></g></g></svg>
